<?xml version="1.0" standalone="no"?>
<!DOCTYPE svg PUBLIC "-//W3C//DTD SVG 20010904//EN"
 "http://www.w3.org/TR/2001/REC-SVG-20010904/DTD/svg10.dtd">
<svg version="1.0" xmlns="http://www.w3.org/2000/svg"
 width="1200.000000pt" height="578.000000pt" viewBox="0 0 1200.000000 578.000000"
 preserveAspectRatio="xMidYMid meet">

<g transform="translate(0.000000,578.000000) scale(0.100000,-0.100000)"
fill="#f0a49e" stroke="none">
<path d="M0 2895 l0 -2885 2894 0 2895 0 -486 978 c-267 537 -589 1186 -715
1442 l-229 465 696 1400 c384 770 705 1419 716 1443 l18 42 -2894 0 -2895 0 0
-2885z m3980 2381 c0 -2 -265 -540 -590 -1194 l-589 -1191 589 -1189 c325
-655 590 -1193 590 -1196 0 -3 -783 -6 -1740 -6 l-1740 0 0 2390 0 2390 1740
0 c957 0 1740 -2 1740 -4z"/>
<path d="M5800 3665 l0 -505 75 0 75 0 0 223 0 223 64 63 c35 35 68 61 74 57
5 -3 81 -132 168 -286 l159 -280 87 0 86 0 -189 333 c-104 182 -188 337 -187
344 2 6 75 77 163 158 88 81 167 153 175 161 12 12 1 14 -82 14 l-97 0 -208
-194 -208 -194 -3 194 -2 194 -75 0 -75 0 0 -505z"/>
<path d="M9030 3665 l0 -505 70 0 70 0 0 159 0 158 51 48 51 47 118 -203 118
-204 86 -3 85 -3 -141 238 c-77 130 -143 244 -145 253 -4 14 26 42 246 227
l26 22 -95 1 -96 0 -144 -125 c-79 -69 -147 -125 -152 -125 -4 0 -8 117 -8
260 l0 260 -70 0 -70 0 0 -505z"/>
<path d="M7759 3905 c-28 -9 -63 -32 -88 -56 l-41 -41 0 46 0 46 -75 0 -75 0
0 -370 0 -370 75 0 76 0 -1 248 c-1 136 -1 253 0 260 0 7 19 33 41 57 85 92
221 86 276 -11 22 -38 23 -48 23 -296 l0 -258 75 0 75 0 0 263 c0 290 -6 331
-59 404 -57 78 -192 113 -302 78z"/>
<path d="M8475 3907 c-145 -48 -214 -158 -174 -278 27 -80 90 -119 252 -155
118 -25 156 -45 171 -86 30 -86 -82 -151 -204 -118 -42 11 -100 59 -125 103
-10 16 -13 16 -64 0 -29 -10 -56 -23 -58 -30 -8 -21 46 -102 90 -134 62 -45
134 -62 241 -57 80 3 99 8 146 34 76 43 112 97 118 173 6 80 -22 138 -84 180
-42 28 -85 40 -238 71 -62 13 -116 52 -116 85 0 29 30 74 58 89 89 45 188 20
242 -62 l15 -23 55 19 c30 10 56 26 58 34 6 30 -61 102 -122 132 -47 24 -74
30 -140 33 -49 2 -97 -2 -121 -10z"/>
<path d="M9979 3907 c-83 -24 -151 -72 -193 -138 l-16 -25 62 -26 61 -25 41
42 c31 33 53 45 91 53 104 22 196 -19 211 -94 l5 -29 -128 -34 c-265 -70 -345
-130 -345 -261 0 -102 64 -185 166 -215 93 -28 191 -10 262 46 l39 31 3 -36 3
-36 70 0 69 0 0 276 c0 181 -4 290 -12 315 -16 54 -68 112 -125 139 -59 28
-195 37 -264 17z m259 -454 l-3 -98 -58 -40 c-56 -38 -63 -40 -134 -40 -72 0
-76 1 -104 33 -50 56 -36 133 32 168 28 14 229 72 257 73 10 1 12 -22 10 -96z"/>
<path d="M10830 3905 c-25 -8 -65 -31 -88 -50 l-42 -37 0 41 0 41 -70 0 -70 0
0 -500 0 -500 75 0 75 0 0 166 0 166 35 -26 c50 -38 108 -56 184 -56 91 0 151
23 215 81 192 175 152 547 -71 655 -67 33 -174 42 -243 19z m195 -159 c99 -76
117 -281 34 -397 -69 -97 -248 -91 -316 12 -26 39 -28 52 -31 152 -5 152 16
204 103 251 22 12 50 16 101 14 60 -3 76 -8 109 -32z"/>
<path d="M11583 3902 c-111 -40 -163 -107 -163 -212 0 -126 58 -173 272 -220
136 -30 158 -46 158 -115 0 -85 -140 -123 -248 -68 -33 17 -74 63 -84 95 -4
11 -103 -15 -121 -32 -14 -13 30 -85 77 -127 57 -50 127 -73 225 -73 111 0
173 21 231 79 54 54 74 116 61 186 -20 104 -84 148 -272 185 -126 25 -153 42
-157 97 -9 123 212 151 284 36 10 -15 19 -30 20 -32 3 -3 101 27 116 36 13 7
-30 79 -67 111 -53 47 -100 63 -195 68 -66 4 -97 0 -137 -14z"/>
<path d="M6662 3623 c3 -239 6 -284 21 -317 47 -107 123 -156 241 -156 78 0
134 21 187 71 17 16 33 29 35 29 2 0 4 -20 4 -45 l0 -45 75 0 75 0 0 370 0
370 -75 0 -75 0 0 -245 c0 -266 -1 -275 -57 -327 -79 -75 -213 -62 -260 24
-16 29 -18 65 -21 291 l-3 257 -75 0 -76 0 4 -277z"/>
<path d="M5800 2380 l0 -510 75 0 75 0 0 165 0 164 43 40 c23 22 47 40 52 40
6 0 63 -92 128 -204 l119 -205 83 0 84 0 -111 188 c-61 103 -129 215 -150 250
-21 34 -38 64 -38 66 0 3 118 105 265 228 19 17 16 17 -75 18 l-96 0 -149
-130 -150 -130 -3 265 -2 265 -75 0 -75 0 0 -510z"/>
<path d="M8910 2380 l0 -510 75 0 75 0 0 510 0 510 -75 0 -75 0 0 -510z"/>
<path d="M6780 2629 c-70 -14 -146 -56 -190 -106 -22 -26 -39 -51 -37 -56 1
-5 28 -20 60 -33 l57 -24 32 36 c40 46 83 64 148 64 84 0 150 -41 165 -101 6
-25 5 -26 -117 -58 -68 -18 -155 -46 -194 -62 -146 -61 -198 -170 -140 -296
68 -146 285 -179 421 -65 l30 25 3 -41 3 -42 70 0 69 0 0 273 c0 213 -3 284
-15 324 -38 128 -191 196 -365 162z m208 -573 c-13 -10 -51 -32 -86 -49 -52
-24 -71 -28 -105 -23 -78 13 -125 67 -112 132 11 59 75 91 285 142 l35 8 3
-95 c3 -90 1 -97 -20 -115z"/>
<path d="M7628 2627 c-54 -16 -71 -27 -115 -76 l-33 -36 0 53 0 52 -70 0 -70
0 0 -370 0 -370 70 0 70 0 0 240 c0 219 2 244 20 279 67 131 249 147 313 26
20 -37 22 -58 25 -297 l4 -258 70 0 69 0 -3 283 c-3 272 -4 284 -27 335 -25
57 -75 106 -128 128 -49 21 -141 26 -195 11z"/>
<path d="M8350 2627 c-30 -7 -74 -23 -96 -35 -45 -23 -127 -109 -121 -126 2
-6 29 -21 60 -33 l57 -23 33 36 c40 46 82 64 149 64 82 0 144 -41 162 -106 6
-19 -5 -23 -131 -57 -75 -21 -163 -49 -195 -64 -71 -31 -134 -97 -144 -148
-26 -140 73 -262 223 -272 85 -6 140 8 198 52 25 19 47 35 50 35 3 0 5 -18 5
-40 l0 -40 71 0 70 0 -3 293 c-3 277 -4 294 -25 332 -46 85 -125 131 -239 140
-40 2 -92 -1 -124 -8z m250 -457 l0 -99 -67 -40 c-86 -50 -130 -59 -189 -36
-49 19 -74 54 -74 105 0 42 23 74 68 94 32 15 230 73 255 75 4 1 7 -44 7 -99z"/>
<path d="M9482 2630 c-234 -49 -350 -338 -232 -577 68 -137 220 -210 386 -184
88 13 162 50 214 107 l42 45 -53 37 -53 37 -42 -42 c-95 -95 -255 -92 -337 7
-24 28 -57 114 -57 147 0 10 54 13 276 13 l277 0 -6 78 c-10 149 -69 247 -180
301 -69 34 -162 46 -235 31z m190 -145 c40 -27 77 -90 78 -132 l0 -23 -195 0
c-189 0 -195 1 -195 20 0 59 59 131 126 156 56 21 137 12 186 -21z"/>
<path d="M10340 2621 c-35 -13 -68 -34 -92 -60 l-38 -40 0 49 0 50 -75 0 -75
0 0 -370 0 -370 75 0 75 0 0 253 0 253 30 41 c76 103 235 104 295 3 18 -32 20
-55 23 -297 l3 -263 76 0 75 0 -4 278 c-5 296 -7 312 -60 389 -57 84 -199 123
-308 84z"/>
</g>
</svg>
