<?xml version="1.0" encoding="UTF-8"?>
<!DOCTYPE svg PUBLIC "-//W3C//DTD SVG 1.1//EN" "http://www.w3.org/Graphics/SVG/1.1/DTD/svg11.dtd">
<svg version="1.1" xmlns="http://www.w3.org/2000/svg" xmlns:xlink="http://www.w3.org/1999/xlink" x="0" y="0" width="624" height="624" viewBox="0, 0, 624, 624">
  <defs>
    <linearGradient id="Gradient_1" gradientUnits="userSpaceOnUse" x1="300.458" y1="347.443" x2="196.564" y2="517.721">
      <stop offset="0" stop-color="#D2BFAD"/>
      <stop offset="0.481" stop-color="#CAC2BB"/>
      <stop offset="1" stop-color="#CAC2BB"/>
    </linearGradient>
    <linearGradient id="Gradient_2" gradientUnits="userSpaceOnUse" x1="195.835" y1="382.783" x2="178.89" y2="410.556">
      <stop offset="0" stop-color="#D2BFAD"/>
      <stop offset="0.481" stop-color="#CAC2BB"/>
      <stop offset="1" stop-color="#CAC2BB"/>
    </linearGradient>
    <linearGradient id="Gradient_3" gradientUnits="userSpaceOnUse" x1="232.296" y1="389.321" x2="217.299" y2="413.901">
      <stop offset="0" stop-color="#D2BFAD"/>
      <stop offset="0.481" stop-color="#CAC2BB"/>
      <stop offset="1" stop-color="#CAC2BB"/>
    </linearGradient>
    <linearGradient id="Gradient_4" gradientUnits="userSpaceOnUse" x1="275.405" y1="415.506" x2="262.338" y2="436.922">
      <stop offset="0" stop-color="#D2BFAD"/>
      <stop offset="0.481" stop-color="#CAC2BB"/>
      <stop offset="1" stop-color="#CAC2BB"/>
    </linearGradient>
    <linearGradient id="Gradient_5" gradientUnits="userSpaceOnUse" x1="306.299" y1="415.843" x2="292.98" y2="437.672">
      <stop offset="0" stop-color="#D2BFAD"/>
      <stop offset="0.481" stop-color="#CAC2BB"/>
      <stop offset="1" stop-color="#CAC2BB"/>
    </linearGradient>
    <linearGradient id="Gradient_6" gradientUnits="userSpaceOnUse" x1="283.034" y1="256.41" x2="179.14" y2="426.687">
      <stop offset="0" stop-color="#D2BFAD"/>
      <stop offset="0.481" stop-color="#CAC2BB"/>
      <stop offset="1" stop-color="#CAC2BB"/>
    </linearGradient>
    <linearGradient id="Gradient_7" gradientUnits="userSpaceOnUse" x1="178.413" y1="291.749" x2="161.463" y2="319.529">
      <stop offset="0" stop-color="#D2BFAD"/>
      <stop offset="0.481" stop-color="#CAC2BB"/>
      <stop offset="1" stop-color="#CAC2BB"/>
    </linearGradient>
    <linearGradient id="Gradient_8" gradientUnits="userSpaceOnUse" x1="214.871" y1="298.282" x2="199.873" y2="322.863">
      <stop offset="0" stop-color="#D2BFAD"/>
      <stop offset="0.481" stop-color="#CAC2BB"/>
      <stop offset="1" stop-color="#CAC2BB"/>
    </linearGradient>
    <linearGradient id="Gradient_9" gradientUnits="userSpaceOnUse" x1="257.981" y1="324.48" x2="244.926" y2="345.876">
      <stop offset="0" stop-color="#D2BFAD"/>
      <stop offset="0.481" stop-color="#CAC2BB"/>
      <stop offset="1" stop-color="#CAC2BB"/>
    </linearGradient>
    <linearGradient id="Gradient_10" gradientUnits="userSpaceOnUse" x1="288.876" y1="324.815" x2="275.566" y2="346.63">
      <stop offset="0" stop-color="#D2BFAD"/>
      <stop offset="0.481" stop-color="#CAC2BB"/>
      <stop offset="1" stop-color="#CAC2BB"/>
    </linearGradient>
    <linearGradient id="Gradient_11" gradientUnits="userSpaceOnUse" x1="75.057" y1="273.982" x2="419.678" y2="249.349">
      <stop offset="0" stop-color="#CCBAAF"/>
      <stop offset="0.257" stop-color="#C79176"/>
      <stop offset="0.478" stop-color="#D1CDBF"/>
      <stop offset="0.635" stop-color="#C79176"/>
      <stop offset="1" stop-color="#CDB5A4"/>
    </linearGradient>
    <linearGradient id="Gradient_12" gradientUnits="userSpaceOnUse" x1="390.077" y1="350.063" x2="555.886" y2="338.211">
      <stop offset="0" stop-color="#96342D"/>
      <stop offset="0.509" stop-color="#BF6248"/>
      <stop offset="1" stop-color="#CCAA7F"/>
    </linearGradient>
    <linearGradient id="Gradient_13" gradientUnits="userSpaceOnUse" x1="389.943" y1="348.078" x2="514.2" y2="339.196">
      <stop offset="0" stop-color="#96342D"/>
      <stop offset="0.33" stop-color="#96342D"/>
      <stop offset="0.635" stop-color="#BF6248"/>
      <stop offset="1" stop-color="#99372E"/>
    </linearGradient>
    <linearGradient id="Gradient_14" gradientUnits="userSpaceOnUse" x1="508.978" y1="345.496" x2="556.167" y2="342.123">
      <stop offset="0" stop-color="#96342D"/>
      <stop offset="0.357" stop-color="#96342D"/>
      <stop offset="0.913" stop-color="#BF6248"/>
      <stop offset="1" stop-color="#CCAA7F"/>
    </linearGradient>
    <linearGradient id="Gradient_15" gradientUnits="userSpaceOnUse" x1="400.886" y1="400.064" x2="501.9" y2="392.844">
      <stop offset="0" stop-color="#96342D"/>
      <stop offset="0.509" stop-color="#BF6248"/>
      <stop offset="1" stop-color="#CCAA7F"/>
    </linearGradient>
    <linearGradient id="Gradient_16" gradientUnits="userSpaceOnUse" x1="293.219" y1="267.942" x2="347.479" y2="307.236">
      <stop offset="0" stop-color="#CCBAAF"/>
      <stop offset="0.383" stop-color="#C1704A"/>
      <stop offset="0.996" stop-color="#BC4C35"/>
      <stop offset="1" stop-color="#BC4C35"/>
    </linearGradient>
    <linearGradient id="Gradient_17" gradientUnits="userSpaceOnUse" x1="336.8" y1="297.937" x2="414.963" y2="354.541">
      <stop offset="0" stop-color="#CCBAAF"/>
      <stop offset="0.383" stop-color="#C1704A"/>
      <stop offset="0.996" stop-color="#BC4C35"/>
      <stop offset="1" stop-color="#BC4C35"/>
    </linearGradient>
    <linearGradient id="Gradient_18" gradientUnits="userSpaceOnUse" x1="233.269" y1="236.767" x2="292.185" y2="279.433">
      <stop offset="0" stop-color="#CCBAAF"/>
      <stop offset="0.383" stop-color="#C1704A"/>
      <stop offset="0.996" stop-color="#BC4C35"/>
      <stop offset="1" stop-color="#BC4C35"/>
    </linearGradient>
    <linearGradient id="Gradient_19" gradientUnits="userSpaceOnUse" x1="193.479" y1="218.714" x2="231.74" y2="246.422">
      <stop offset="0" stop-color="#CCBAAF"/>
      <stop offset="0.383" stop-color="#C1704A"/>
      <stop offset="0.996" stop-color="#BC4C35"/>
      <stop offset="1" stop-color="#BC4C35"/>
    </linearGradient>
    <linearGradient id="Gradient_20" gradientUnits="userSpaceOnUse" x1="160.635" y1="207.673" x2="210.631" y2="243.879">
      <stop offset="0" stop-color="#CCBAAF"/>
      <stop offset="0.383" stop-color="#C1704A"/>
      <stop offset="0.996" stop-color="#BC4C35"/>
      <stop offset="1" stop-color="#BC4C35"/>
    </linearGradient>
    <linearGradient id="Gradient_21" gradientUnits="userSpaceOnUse" x1="116.366" y1="189.675" x2="172.73" y2="230.492">
      <stop offset="0" stop-color="#CCBAAF"/>
      <stop offset="0.383" stop-color="#C1704A"/>
      <stop offset="0.996" stop-color="#BC4C35"/>
      <stop offset="1" stop-color="#BC4C35"/>
    </linearGradient>
    <linearGradient id="Gradient_22" gradientUnits="userSpaceOnUse" x1="400.725" y1="397.864" x2="475.335" y2="392.531">
      <stop offset="0" stop-color="#96342D"/>
      <stop offset="0.33" stop-color="#96342D"/>
      <stop offset="0.635" stop-color="#BF6248"/>
      <stop offset="1" stop-color="#99372E"/>
    </linearGradient>
    <linearGradient id="Gradient_23" gradientUnits="userSpaceOnUse" x1="349.955" y1="324.124" x2="416.243" y2="319.386">
      <stop offset="0" stop-color="#CCBAAF"/>
      <stop offset="0.187" stop-color="#BE603A"/>
      <stop offset="0.996" stop-color="#BA3A36"/>
      <stop offset="1" stop-color="#BA3A36"/>
    </linearGradient>
    <linearGradient id="Gradient_24" gradientUnits="userSpaceOnUse" x1="305.146" y1="283.945" x2="339.747" y2="281.472">
      <stop offset="0" stop-color="#CCBAAF"/>
      <stop offset="0.187" stop-color="#BE603A"/>
      <stop offset="0.996" stop-color="#BA3A36"/>
      <stop offset="1" stop-color="#BA3A36"/>
    </linearGradient>
    <linearGradient id="Gradient_25" gradientUnits="userSpaceOnUse" x1="253.141" y1="259.86" x2="312.63" y2="255.608">
      <stop offset="0" stop-color="#CCBAAF"/>
      <stop offset="0.187" stop-color="#BE603A"/>
      <stop offset="0.996" stop-color="#BA3A36"/>
      <stop offset="1" stop-color="#BA3A36"/>
    </linearGradient>
    <linearGradient id="Gradient_26" gradientUnits="userSpaceOnUse" x1="209.281" y1="225.95" x2="252.052" y2="222.893">
      <stop offset="0" stop-color="#CCBAAF"/>
      <stop offset="0.187" stop-color="#BE603A"/>
      <stop offset="0.996" stop-color="#BA3A36"/>
      <stop offset="1" stop-color="#BA3A36"/>
    </linearGradient>
    <linearGradient id="Gradient_27" gradientUnits="userSpaceOnUse" x1="92.484" y1="365.013" x2="437.103" y2="340.38">
      <stop offset="0" stop-color="#F2C6B9"/>
      <stop offset="0.257" stop-color="#EC987C"/>
      <stop offset="0.478" stop-color="#FADBC8"/>
      <stop offset="0.635" stop-color="#EC987C"/>
      <stop offset="1" stop-color="#F4C0AD"/>
    </linearGradient>
    <linearGradient id="Gradient_28" gradientUnits="userSpaceOnUse" x1="407.507" y1="441.097" x2="573.306" y2="429.246">
      <stop offset="0" stop-color="#B2282D"/>
      <stop offset="0.509" stop-color="#E2624A"/>
      <stop offset="1" stop-color="#F2B487"/>
    </linearGradient>
    <linearGradient id="Gradient_29" gradientUnits="userSpaceOnUse" x1="407.366" y1="439.11" x2="531.627" y2="430.228">
      <stop offset="0" stop-color="#B2282D"/>
      <stop offset="0.33" stop-color="#B2282D"/>
      <stop offset="0.635" stop-color="#E2624A"/>
      <stop offset="1" stop-color="#B52C2F"/>
    </linearGradient>
    <linearGradient id="Gradient_30" gradientUnits="userSpaceOnUse" x1="526.415" y1="436.533" x2="573.586" y2="433.161">
      <stop offset="0" stop-color="#B2282D"/>
      <stop offset="0.357" stop-color="#B2282D"/>
      <stop offset="0.913" stop-color="#E2624A"/>
      <stop offset="1" stop-color="#F2B487"/>
    </linearGradient>
    <linearGradient id="Gradient_31" gradientUnits="userSpaceOnUse" x1="418.308" y1="491.103" x2="519.323" y2="483.883">
      <stop offset="0" stop-color="#B2282D"/>
      <stop offset="0.509" stop-color="#E2624A"/>
      <stop offset="1" stop-color="#F2B487"/>
    </linearGradient>
    <linearGradient id="Gradient_32" gradientUnits="userSpaceOnUse" x1="310.647" y1="358.979" x2="364.908" y2="398.273">
      <stop offset="0" stop-color="#F2C6B9"/>
      <stop offset="0.383" stop-color="#E4724D"/>
      <stop offset="0.996" stop-color="#DC4535"/>
      <stop offset="1" stop-color="#DC4535"/>
    </linearGradient>
    <linearGradient id="Gradient_33" gradientUnits="userSpaceOnUse" x1="354.236" y1="388.973" x2="432.396" y2="445.575">
      <stop offset="0" stop-color="#F2C6B9"/>
      <stop offset="0.383" stop-color="#E4724D"/>
      <stop offset="0.996" stop-color="#DC4535"/>
      <stop offset="1" stop-color="#DC4535"/>
    </linearGradient>
    <linearGradient id="Gradient_34" gradientUnits="userSpaceOnUse" x1="250.696" y1="327.798" x2="309.608" y2="370.461">
      <stop offset="0" stop-color="#F2C6B9"/>
      <stop offset="0.383" stop-color="#E4724D"/>
      <stop offset="0.996" stop-color="#DC4535"/>
      <stop offset="1" stop-color="#DC4535"/>
    </linearGradient>
    <linearGradient id="Gradient_35" gradientUnits="userSpaceOnUse" x1="210.91" y1="309.747" x2="249.174" y2="337.457">
      <stop offset="0" stop-color="#F2C6B9"/>
      <stop offset="0.383" stop-color="#E4724D"/>
      <stop offset="0.996" stop-color="#DC4535"/>
      <stop offset="1" stop-color="#DC4535"/>
    </linearGradient>
    <linearGradient id="Gradient_36" gradientUnits="userSpaceOnUse" x1="178.059" y1="298.714" x2="228.05" y2="334.916">
      <stop offset="0" stop-color="#F2C6B9"/>
      <stop offset="0.383" stop-color="#E4724D"/>
      <stop offset="0.996" stop-color="#DC4535"/>
      <stop offset="1" stop-color="#DC4535"/>
    </linearGradient>
    <linearGradient id="Gradient_37" gradientUnits="userSpaceOnUse" x1="133.788" y1="280.704" x2="190.159" y2="321.527">
      <stop offset="0" stop-color="#F2C6B9"/>
      <stop offset="0.383" stop-color="#E4724D"/>
      <stop offset="0.996" stop-color="#DC4535"/>
      <stop offset="1" stop-color="#DC4535"/>
    </linearGradient>
    <linearGradient id="Gradient_38" gradientUnits="userSpaceOnUse" x1="418.149" y1="488.895" x2="492.767" y2="483.561">
      <stop offset="0" stop-color="#B2282D"/>
      <stop offset="0.33" stop-color="#B2282D"/>
      <stop offset="0.635" stop-color="#E2624A"/>
      <stop offset="1" stop-color="#B52C2F"/>
    </linearGradient>
    <linearGradient id="Gradient_39" gradientUnits="userSpaceOnUse" x1="367.386" y1="415.157" x2="433.662" y2="410.42">
      <stop offset="0" stop-color="#F2C6B9"/>
      <stop offset="0.187" stop-color="#E05E3B"/>
      <stop offset="0.996" stop-color="#D92F37"/>
      <stop offset="1" stop-color="#D92F37"/>
    </linearGradient>
    <linearGradient id="Gradient_40" gradientUnits="userSpaceOnUse" x1="322.585" y1="374.984" x2="357.165" y2="372.512">
      <stop offset="0" stop-color="#F2C6B9"/>
      <stop offset="0.187" stop-color="#E05E3B"/>
      <stop offset="0.996" stop-color="#D92F37"/>
      <stop offset="1" stop-color="#D92F37"/>
    </linearGradient>
    <linearGradient id="Gradient_41" gradientUnits="userSpaceOnUse" x1="270.578" y1="350.895" x2="330.067" y2="346.643">
      <stop offset="0" stop-color="#F2C6B9"/>
      <stop offset="0.187" stop-color="#E05E3B"/>
      <stop offset="0.996" stop-color="#D92F37"/>
      <stop offset="1" stop-color="#D92F37"/>
    </linearGradient>
    <linearGradient id="Gradient_42" gradientUnits="userSpaceOnUse" x1="226.697" y1="316.986" x2="269.476" y2="313.928">
      <stop offset="0" stop-color="#F2C6B9"/>
      <stop offset="0.187" stop-color="#E05E3B"/>
      <stop offset="0.996" stop-color="#D92F37"/>
      <stop offset="1" stop-color="#D92F37"/>
    </linearGradient>
  </defs>
  <g id="Layer_1">
    <path d="M97.436,330.254 C98.842,332.828 108.193,335.437 112.693,334.241 C111.85,339.529 119.542,336.66 122.481,335.711 C123.029,342.805 123.536,343.895 129.478,344.43 C127.72,352.86 126.771,359.097 130.834,366.711 C132.149,369.215 134.659,367.513 135.735,366.824 C135.735,375.29 136.909,385.893 141.149,380.676 C138.597,385.921 137.317,397.543 142.942,396.201 C142.942,396.201 148.482,407.879 155.542,401.565 C158.06,408.948 158.565,407.542 162.193,405.418 C163.649,409.286 178.225,419.657 179.026,409.461 C179.982,411.55 180.686,419.987 189.911,420.107 C189.7,427.469 200.845,429.627 210.526,426.793 C212.341,431.272 225.771,431.343 230.256,425.507 C229.005,431.525 233.224,438.29 236.021,435.322 C235.931,442.332 239.903,448.415 249.409,446.01 C254.964,452.282 255.709,453.041 261.896,448.956 C263.528,455.832 273.864,457.499 279.995,454.11 C281.021,460.656 295.956,457.52 302.481,452.282 C301.286,460.452 308.177,462.906 315.806,457.485 C316.67,465.789 324.123,461.451 330.571,460.649 C330.571,460.649 316.909,472.391 347.692,466.872 C365.537,463.672 362.303,461.331 365.798,457.668 C365.798,457.668 372.597,464.77 382.005,458.012 C383.024,463.827 395.575,475.218 400.342,467.364 C406.459,469.157 409.3,468.995 412.675,463.813 C419.692,465.754 434.599,466.527 439.872,462.301 C442.811,459.953 440.448,458.997 438.662,457.218 C444.829,454.954 447.128,458.026 450.771,450.89 C362.021,421.956 278.912,383.847 202.603,329.762 C171.686,325.621 140.974,320.776 110.472,314.272 C105.381,320.685 102.759,323.87 97.436,330.254 z" fill="url(#Gradient_1)"/>
    <path d="M129.864,334.86 C128.669,339.957 129.759,344.683 135.334,340.218 C137.774,346.426 134.505,350.441 137.303,354.597 C141.853,351.629 139.567,351.081 145.6,351.172 C145.6,351.172 136.347,359.012 140.376,364.897 C145.685,372.667 148.623,362.971 148.623,362.971 C148.623,362.971 148.146,383.411 153.433,378.348 C158.706,373.265 159.606,367.654 159.803,365.094 C162.503,372.758 163.839,374.797 168.592,375.796 C162.103,379.403 156.597,380.915 157.089,387.032 C165.175,383.98 168.662,381.927 172.347,385.956 C169.506,393.121 167.565,399.245 171.896,402.768 C176.214,406.283 179.631,398.598 180.771,395.012 C180.826,405.187 183.526,414.32 190.228,411.606 C192.513,402.901 193.061,399.843 194.587,398.282 C194.587,398.282 197.42,408.372 199.417,409.321 C201.428,410.277 207.524,405.489 205.063,398.971 C205.063,398.971 206.729,403.358 209.95,406.762 C208.72,417.667 214.591,410.615 217.698,410.657 C216.292,419.354 218.915,422.301 226.122,420.922 C228.021,414.735 229.567,414.65 233.048,411.93 C233.729,416.964 231.409,424.705 237.196,425.894 C241.626,419.551 246.779,419.727 251.448,419.917 C251.927,427.49 250.154,433.192 253.017,436.539 C255.899,439.886 259.787,441.644 262.79,438.866 C265.792,443.211 264.878,445.3 269.997,447.922 C269.997,447.922 275.2,439.886 278.279,438.599 C278.279,438.599 274.482,432.341 275.186,428.727 C281.331,432.257 287.209,436.785 292.497,436.265 C286.295,442.452 285.114,447.121 287.49,448.921 C289.881,450.721 299.654,449.765 305.49,444.582 C311.284,439.394 314.153,433.473 314.153,433.473 C314.153,433.473 317.894,423.433 306.735,423.13 C301.975,422.997 298.178,418.461 293.235,416.401 C288.278,414.355 278.279,412.731 276.22,412.907 C274.181,413.09 265.904,400.581 262.228,405.433 C258.536,410.284 254.247,400.447 250.745,400.687 C247.229,400.933 240.521,397.804 237.583,398.985 C234.63,400.18 227.845,391.918 226.825,390.442 C225.806,388.973 218.353,386.8 211.989,385.52 C205.604,384.248 208.052,380.085 203.748,375.655 C202.019,373.883 199.206,374.01 197.927,377.343 C197.279,374.066 192.175,365.91 191.036,365.319 C189.173,364.356 187.591,369.461 187.591,369.461 C188.42,373.004 182.472,356.34 174.498,356.411 C177.128,359.441 177.079,360.454 176.959,362.999 C176.833,365.551 167.271,352.867 165.337,353.894 C166.201,348.275 162.243,345.723 159.853,346.728 C157.497,347.741 155.071,348.747 152.589,345.653 C151.626,344.422 147.724,344.943 147.357,340.879 C146.704,342.644 143.329,342.735 142.345,342.18 C140.411,341.118 140.938,338.2 140.622,337.778 C139.834,336.744 131.396,331.851 129.864,334.86" fill="#FFFFFE"/>
    <path d="M319.764,436.637 C320.06,438.395 318.302,442.902 321.255,445.862 C319.778,450.355 320.411,456.128 326.05,454.954 C331.717,453.766 334.979,451.818 337.778,448.914 C340.534,450.348 345.808,452.422 348.269,451.347 C343.052,454.602 336.667,458.216 339.058,460.452 C341.435,462.688 358.394,458.097 361.86,454.546 C366.325,456.957 369.489,457 372.513,456.536 C375.536,456.079 375.185,453.336 375.198,451.03 C378.222,453.111 379.459,453.442 384.009,453.477 C386.364,457.189 389.423,463.602 393.782,463.651 C398.142,463.707 396.714,459.327 396.595,457.815 C399.372,460.684 400.271,461.809 404.237,459.327 C408.196,456.866 409.216,453.351 404.561,450.067 C399.92,446.77 391.989,445.792 392.326,448.042 C389.001,447.304 381.808,442.353 373.061,443.19 C366.466,440.118 361.979,437.2 356.495,438.747 C352.178,436.56 346.392,433.543 340.907,434.774 C336.302,432.067 333.053,430.45 329.868,430.836 C326.704,431.237 318.287,427.405 319.764,436.637" fill="#FFFFFE"/>
    <path d="M184.764,380.619 C184.673,383.129 184.708,391.707 188.856,395.188 C192.99,398.662 190.979,401.46 193.251,404.961 C195.521,408.477 196.063,401.263 195.311,399.772 C194.587,398.282 194.748,390.688 195.943,387.89 C192.498,389.176 194.411,388.332 192.478,389.176 C190.544,390.013 185.481,381.793 185.917,379.804 C186.381,377.821 184.849,378.243 184.764,380.619 z" fill="url(#Gradient_2)"/>
    <path d="M223.063,405.046 C225.362,402.571 233.54,400.567 238.904,398.668 C244.263,396.77 235.558,393.339 235.558,393.339 C235.558,393.339 230.326,398.359 229.159,398.422 C227.985,398.478 218.634,398.542 214.731,396.341 C215.54,399.069 220.638,401.214 222.972,401.102 C221.847,402.726 223.063,405.046 223.063,405.046 z" fill="url(#Gradient_3)"/>
    <path d="M259.556,413.448 C262.087,415.241 264.653,417.02 266.495,419.629 C268.345,422.237 268.907,428.516 268.591,429.719 C268.274,430.935 269.435,425.704 273.568,430.098 C277.675,434.472 279.595,436.672 279.595,436.672 C279.595,436.672 273.759,427.707 273.267,422.624 C272.795,417.526 271.909,416.823 273.021,415.93 C274.159,415.051 271.509,416.858 268.696,417.09 C265.904,417.315 259.556,413.448 259.556,413.448 z" fill="url(#Gradient_4)"/>
    <path d="M300.618,416.478 C301.181,417.603 300.287,426.013 298.649,429.332 C297.011,432.65 306.222,424.185 308.584,420.761 C310.954,417.351 300.618,416.478 300.618,416.478 z" fill="url(#Gradient_5)"/>
    <path d="M80.013,239.221 C81.405,241.801 90.756,244.403 95.256,243.207 C94.412,248.488 102.104,245.633 105.058,244.684 C105.592,251.779 106.099,252.875 112.04,253.403 C110.303,261.819 109.347,268.063 113.396,275.685 C114.712,278.188 117.243,276.479 118.318,275.797 C118.298,284.263 119.493,294.866 123.732,289.649 C121.146,294.887 119.88,306.503 125.519,305.167 C125.519,305.167 131.045,316.839 138.126,310.532 C140.636,317.915 141.149,316.508 144.756,314.378 C146.232,318.245 160.787,328.616 161.61,318.435 C162.545,320.516 163.248,328.961 172.474,329.073 C172.276,336.442 183.407,338.601 193.089,335.753 C194.903,340.239 208.333,340.323 212.818,334.487 C211.567,340.492 215.786,347.249 218.599,344.296 C218.514,351.292 222.466,357.374 231.972,354.983 C237.526,361.255 238.286,362.015 244.459,357.93 C246.091,364.792 256.427,366.465 262.558,363.069 C263.599,369.623 278.54,366.479 285.044,361.255 C283.862,369.426 290.753,371.858 298.389,366.465 C299.247,374.762 306.7,370.417 313.134,369.629 C313.134,369.629 299.493,381.351 330.269,375.838 C348.114,372.632 344.88,370.305 348.381,366.641 C348.381,366.641 355.159,373.743 364.567,366.972 C365.587,372.808 378.138,384.184 382.904,376.323 C389.021,378.116 391.884,377.976 395.237,372.787 C402.255,374.727 417.161,375.5 422.448,371.261 C425.388,368.926 423.011,367.963 421.204,366.184 C427.412,363.913 429.69,367 433.347,359.856 C344.584,330.93 261.475,292.813 185.165,238.728 C154.263,234.594 123.55,229.743 93.035,223.232 C87.944,229.651 85.342,232.851 80.013,239.221 z" fill="url(#Gradient_6)"/>
    <path d="M112.44,243.819 C111.245,248.917 112.321,253.649 117.896,249.184 C120.337,255.386 117.081,259.415 119.88,263.563 C124.415,260.589 122.13,260.047 128.162,260.153 C128.162,260.153 118.909,267.978 122.938,273.871 C128.261,281.633 131.2,271.944 131.2,271.944 C131.2,271.944 130.722,292.37 135.995,287.308 C141.29,282.238 142.169,276.613 142.38,274.075 C145.087,281.732 146.401,283.771 151.169,284.762 C144.665,288.362 139.181,289.867 139.673,295.991 C147.759,292.954 151.239,290.894 154.931,294.93 C152.068,302.094 150.149,308.219 154.474,311.734 C158.798,315.257 162.193,307.558 163.333,303.993 C163.403,314.167 166.11,323.287 172.811,320.586 C175.075,311.882 175.638,308.816 177.17,307.241 C177.17,307.241 179.982,317.331 181.979,318.294 C184.005,319.25 190.087,314.455 187.626,307.944 C187.626,307.944 189.292,312.325 192.526,315.721 C191.282,326.641 197.153,319.581 200.282,319.637 C198.854,328.321 201.498,331.274 208.685,329.903 C210.597,323.708 212.13,323.624 215.61,320.896 C216.313,325.937 213.972,333.679 219.759,334.86 C224.209,328.511 229.342,328.687 234.011,328.883 C234.503,336.456 232.731,342.151 235.6,345.505 C238.462,348.852 242.364,350.61 245.353,347.832 C248.376,352.171 247.44,354.266 252.56,356.896 C252.56,356.896 257.763,348.852 260.856,347.565 C260.856,347.565 257.045,341.301 257.748,337.701 C263.894,341.223 269.786,345.758 275.073,345.231 C268.857,351.426 267.677,356.08 270.053,357.887 C272.443,359.694 282.231,358.738 288.053,353.542 C293.868,348.36 296.716,342.433 296.716,342.433 C296.716,342.433 300.478,332.399 289.318,332.09 C284.552,331.956 280.755,327.414 275.798,325.368 C270.841,323.329 260.842,321.69 258.803,321.88 C256.764,322.049 248.481,309.555 244.79,314.399 C241.112,319.25 236.823,309.421 233.308,309.66 C229.792,309.899 223.099,306.77 220.146,307.944 C217.192,309.14 210.428,300.878 209.401,299.401 C208.368,297.946 200.936,295.766 194.552,294.479 C188.188,293.207 190.614,289.051 186.325,284.622 C184.603,282.843 181.769,282.983 180.503,286.316 C179.842,283.025 174.737,274.883 173.612,274.293 C171.756,273.315 170.153,278.434 170.153,278.434 C170.982,281.971 165.034,265.307 157.061,265.37 C159.69,268.4 159.662,269.427 159.536,271.965 C159.396,274.511 149.833,261.84 147.92,262.86 C148.764,257.249 144.806,254.689 142.436,255.702 C140.06,256.707 137.654,257.706 135.173,254.612 C134.188,253.382 130.3,253.902 129.92,249.852 C129.287,251.61 125.912,251.694 124.907,251.153 C122.987,250.098 123.521,247.159 123.198,246.758 C122.411,245.711 113.959,240.817 112.44,243.819" fill="#FFFFFE"/>
    <path d="M302.341,345.597 C302.622,347.354 300.878,351.875 303.817,354.829 C302.341,359.329 302.974,365.108 308.612,363.913 C314.279,362.732 317.563,360.784 320.354,357.887 C323.118,359.308 328.392,361.396 330.831,360.313 C325.614,363.562 319.251,367.176 321.62,369.418 C323.997,371.668 340.956,367.063 344.423,363.512 C348.901,365.917 352.052,365.966 355.075,365.502 C358.099,365.059 357.747,362.296 357.761,359.997 C360.806,362.085 362.021,362.401 366.592,362.457 C368.927,366.163 371.985,372.576 376.345,372.618 C380.725,372.667 379.276,368.301 379.178,366.789 C381.935,369.644 382.834,370.769 386.821,368.301 C390.779,365.832 391.778,362.317 387.123,359.026 C382.482,355.743 374.565,354.758 374.889,357.008 C371.563,356.277 364.392,351.327 355.638,352.157 C349.028,349.091 344.542,346.166 339.079,347.706 C334.755,345.52 328.975,342.503 323.47,343.748 C318.864,341.033 315.615,339.409 312.451,339.817 C309.287,340.204 300.864,336.372 302.341,345.597" fill="#FFFFFE"/>
    <path d="M167.341,289.593 C167.235,292.089 167.284,300.688 171.419,304.147 C175.567,307.628 173.563,310.426 175.834,313.942 C178.099,317.437 178.626,310.229 177.888,308.739 C177.17,307.241 177.311,299.647 178.521,296.856 C175.061,298.136 176.974,297.292 175.04,298.136 C173.12,298.965 168.044,290.76 168.501,288.777 C168.958,286.78 167.425,287.216 167.341,289.593 z" fill="url(#Gradient_7)"/>
    <path d="M205.646,314.012 C207.946,311.53 216.103,309.533 221.467,307.635 C226.839,305.729 218.142,302.305 218.142,302.305 C218.142,302.305 212.889,307.332 211.722,307.382 C210.548,307.452 201.217,307.508 197.308,305.308 C198.123,308.029 203.214,310.18 205.556,310.075 C204.409,311.706 205.646,314.012 205.646,314.012 z" fill="url(#Gradient_8)"/>
    <path d="M242.139,322.415 C244.67,324.207 247.216,325.979 249.058,328.602 C250.907,331.211 251.47,337.476 251.167,338.692 C250.857,339.901 252.011,334.677 256.131,339.058 C260.237,343.452 262.178,345.632 262.178,345.632 C262.178,345.632 256.321,336.674 255.829,331.59 C255.357,326.5 254.472,325.79 255.597,324.904 C256.722,324.011 254.071,325.825 251.279,326.05 C248.467,326.282 242.139,322.415 242.139,322.415 z" fill="url(#Gradient_9)"/>
    <path d="M283.201,325.452 C283.743,326.577 282.864,334.973 281.232,338.291 C279.595,341.624 288.806,333.151 291.161,329.727 C293.517,326.317 283.201,325.452 283.201,325.452 z" fill="url(#Gradient_10)"/>
    <path d="M107.35,204.269 C96.923,204.719 95.447,209.641 90.736,212.425 C89.119,213.374 85.076,213.69 83.866,215.519 C81.785,218.598 84.949,220.476 84.9,222.219 C84.808,225.679 82.248,228.695 81.771,232.168 C81.222,236.071 83.373,237.027 83.444,239.27 C83.542,243.433 77.566,249.346 80.013,251.835 C66.794,254.226 78.381,262.748 80.772,266.586 C80.962,267.697 78.818,266.53 77.763,268.07 C76.708,269.61 77.819,271.002 79.029,271.727 C79.029,273.555 81.068,273.196 82.417,273.674 C82.066,276.465 77.587,278.047 77.728,281.352 C76.933,283.223 85.427,287.54 89.857,289.487 C94.216,291.421 100.298,289.403 103.722,286.394 C109.192,299.387 118.614,292.194 121.849,282.442 C124.837,282.688 127.839,283.012 130.482,282.442 C134.42,291.386 160.042,296.821 165.267,287.23 C171.433,290.971 182.725,294.465 186.381,286.991 C187.169,287.877 187.169,287.926 187.591,289.312 C191.106,291.336 194.165,294.887 198.454,296.821 C203.706,299.176 208.909,298.818 214.464,300.069 C224.048,302.214 229.792,301.645 238.673,298.255 C247.764,305.729 260.519,317.015 272.303,308.169 C278.013,311.144 282.245,317.879 288.208,321.817 C293.467,325.297 305.448,330.374 311.396,328.497 C311.728,328.581 312.1,329.432 312.536,329.622 C314.701,327.667 317.683,328.286 320.537,329.868 C313.661,343.79 348.466,353.929 356.763,355.672 C365.537,357.515 374.411,358.021 383.06,360.348 C392.622,362.929 399.034,364.897 407.845,359.012 C418.603,351.819 429.923,338.108 423.946,325.551 C418.251,313.625 405.503,309.351 395.681,302.284 C386.659,295.815 372.217,275.896 359.927,276.367 C359.751,275.875 359.561,275.375 359.378,274.891 C359.026,274.862 358.802,275.003 358.717,275.348 C355.764,259.942 332.997,238.848 316.685,238.124 C307.966,223.499 297.292,207.735 279.896,204.81 C276.677,204.269 273.126,205.822 270.067,205.352 C265.146,204.613 259.506,201.266 255.056,199.353 C247.131,195.957 238.567,192.14 230.045,191.753 C229.04,184.778 216.896,181.586 211.392,178.731 C207.454,176.692 203.341,173.612 199.228,172.115 C194.903,170.519 190.389,171.433 185.917,170.638 L186.044,170.723 C181.558,166.511 174.372,160.794 174.231,162.116 C174.231,161.75 174.618,161.364 172.417,161.223 C171.784,161.54 171.545,161.364 170.631,161.519 C168.058,159.676 163.459,159.585 159.592,158.411 C159.55,158.411 158.776,159.409 158.587,159.543 C156.667,156.723 150.311,156.547 147.407,156.969 C142.345,157.743 141.571,159.88 140.306,165.456 C140.565,165.463 140.678,165.336 140.636,165.083 C134.716,168.269 127.178,168.536 126.686,176.671 C117.995,177.606 121.216,183.667 118.087,189.369 C116.54,192.245 111.639,197.898 108.841,198.96 C106.345,200.38 106.731,202.44 107.35,204.269 z" fill="url(#Gradient_11)"/>
    <path d="M198.313,269.589 C192.196,265.792 183.315,271.276 176.889,266.052 C170.856,261.145 171.826,256.004 162.946,254.507 C158.024,253.684 157.581,254.753 153.946,251.645 C151.872,249.838 151.099,246.653 148.427,244.733 C140.341,238.933 131.073,244.206 124.112,234.566 C118.896,227.331 117.771,218.683 110.331,212.699 C104.868,208.297 97.605,206.012 92.191,211.827 C88.956,215.336 89.519,217.698 89.912,221.924 C90.222,225.665 90.123,229.265 90.349,233.082 C90.475,234.995 92.022,238.18 92.458,240.163 C93.583,245.542 93.991,242.934 92.142,248.165 C90.194,253.698 90.56,254.985 90.222,260.427 C90.123,262.122 88.183,263.457 88.169,266.003 C88.134,269.097 90.123,270.784 90.49,273.758 C90.897,276.901 89.87,279.714 90.279,282.618 C90.525,284.453 91.839,286.112 92.177,287.891 C92.353,288.665 92.423,289.438 92.472,290.184 C96.396,290.633 100.931,288.84 103.722,286.394 C109.192,299.387 118.614,292.194 121.849,282.442 C122.868,282.526 123.888,282.618 124.886,282.674 C124.063,279.693 123.114,276.972 122.467,275.038 C120.688,269.75 116.821,256.848 121.708,252.412 C129.104,245.676 128.584,257.987 129.386,261.974 C130.834,269.301 131.868,279.735 135.292,287.399 C141.17,291.14 150.747,293.214 157.693,291.878 C157.181,289.79 155.915,287.624 155.423,285.269 C155.753,285.36 156.315,286.063 156.653,286.288 C162.524,278.729 164.542,283.004 172.052,283.778 C175.146,284.094 178.731,283.04 181.698,283.04 C185.748,283.054 189.981,284.812 194.095,283.968 C200.725,282.597 205.534,274.11 198.313,269.589" fill="#B7806F"/>
    <path d="M257.587,301.63 C264.161,305.195 269.575,302.235 275.622,305.378 C278.646,306.946 281.704,309.793 283.989,311.762 C285.185,312.796 286.295,315.06 287.892,315.946 C290.88,317.612 293.678,315.819 296.153,318.723 C302.636,319.862 310.216,315.777 316.276,316.958 C321.761,318.034 326.81,324.299 329.341,328.813 C333.243,335.753 335.985,343.382 345.034,344.57 C352.263,345.512 360.925,343.255 364.497,335.95 C357.36,327.934 346.553,324.383 338.903,316.719 C333.595,311.411 330.325,306.538 323.786,302.622 C317.373,298.775 311.903,298.044 304.169,298.937 C298.614,299.577 291.724,303.008 290.612,295.661 C289.86,295.464 288.981,295.52 288.222,295.513 C288.138,295.661 287.87,294.332 287.962,294.367 C288.292,294.332 291.302,293.383 290.401,293.565 C291.287,290.781 290.704,285.972 292.146,281.992 C294.521,275.46 299.443,271.276 299.774,263.296 C295.591,263.598 291.513,266.333 288.56,269.301 C287.083,270.784 285.339,275.235 283.427,276.043 C279.081,277.872 268.815,271.564 263.936,271.065 C257.938,270.433 248.537,270.102 243.404,273.983 C226.558,286.724 248.13,296.483 257.587,301.63" fill="#B7806F"/>
    <path d="M419.446,337.082 C427.321,336.52 427.778,333.854 437.396,339.093 C447.009,344.352 468.784,344.76 477.503,346.778 C486.222,348.796 502.767,340.358 518.517,339.233 C534.245,338.108 547.323,336.52 552.021,337.497 C556.717,338.481 557.701,343.03 553.181,344.676 C548.681,346.321 541.389,345.512 539.42,345.66 C537.451,345.801 548.224,348.993 548.224,348.993 L533.753,349.358 L544.764,355.827 L523.474,353.387 C523.474,353.387 543.526,357.233 543.667,359.202 C543.808,361.164 528.17,363.597 528.17,363.597 L526.567,368.997 L514.487,365.903 L510.888,370.775 C510.888,370.775 505.298,366.557 497.388,366.465 C489.456,366.374 476.94,366.606 469.017,366.508 C461.106,366.416 443.774,372.934 438.993,370.649 C434.212,368.343 397.979,359.715 391.511,352.27 C385.042,344.816 399.759,320.024 403.696,319.743 C407.634,319.461 419.446,337.082 419.446,337.082 z" fill="url(#Gradient_12)"/>
    <path d="M514.909,353.331 C514.769,351.369 507.597,352.543 491.095,352.403 C474.606,352.262 470.528,350.582 460.487,348.655 C455.326,347.664 451.628,345.336 448.134,342.58 C443.95,341.715 440.153,340.604 437.396,339.093 C427.778,333.854 427.321,336.52 419.446,337.082 C419.446,337.082 409.919,322.872 405.123,320.179 C400.553,327.582 395.209,336.238 390.056,344.683 C389.654,347.797 389.985,350.519 391.511,352.27 C397.979,359.715 434.212,368.343 438.993,370.649 C443.774,372.934 461.106,366.416 469.017,366.508 C473.115,366.571 478.459,366.515 483.747,366.479 C479.401,363.59 476.561,361.255 476.42,359.385 C476.237,356.762 488.19,357.887 503.329,357.465 C518.467,357.043 515.05,355.307 514.909,353.331 z" fill="url(#Gradient_13)"/>
    <path d="M552.021,337.497 C547.323,336.52 534.245,338.108 518.517,339.233 C515.232,339.473 511.928,340.028 508.638,340.745 C516.935,341.378 518.214,342.243 524.05,342.805 C532.017,343.543 514.403,346.124 511.154,347.024 C507.92,347.91 518.607,349.78 523.896,350.062 C527.271,350.237 537.185,348.62 546.396,348.43 C543.407,347.516 537.972,345.758 539.42,345.66 C541.389,345.512 548.681,346.321 553.181,344.676 C557.701,343.03 556.717,338.481 552.021,337.497 z" fill="url(#Gradient_14)"/>
    <path d="M413.153,378.418 C423.714,379.34 417.196,379.445 419.537,384.55 C421.886,389.668 434.388,407.894 445.862,420.922 C457.365,433.944 466.907,438.543 470.95,439.569 C474.972,440.596 475.31,435.969 475.907,435.266 C476.519,434.563 476.575,435.21 479.247,435.688 C481.904,436.152 480.935,431.61 480.935,431.61 C488.845,431.694 485.997,428.601 485.997,428.601 C485.997,428.601 484.112,420.824 488.19,422.519 C492.255,424.206 494.892,424.016 492.69,420.88 C490.482,417.737 491.425,421.625 490.482,417.737 C489.568,413.835 482.938,413.659 482.003,409.771 C481.075,405.875 492.128,412.991 492.128,412.991 C497.612,415.909 502.717,413.568 500.565,411.079 C498.407,408.597 500.2,405.819 500.2,405.819 L502.675,403.675 C502.675,403.675 498.688,403.302 498.456,400.019 C498.217,396.735 501.732,399.793 495.208,391.68 C488.704,383.565 482.003,372.843 461.106,366.416 C440.209,359.997 440.659,357.325 435.372,357.043 C430.084,356.762 435.709,361.649 424.881,357.796 C414.053,353.95 400.834,353.577 399.196,358.309 C397.558,363.041 396.573,376.963 413.153,378.418 z" fill="url(#Gradient_15)"/>
    <path d="M358.815,275.193 L358.571,274.582 L358.431,274.638 L357.806,274.887 L358.111,275.605 L358.6,276.754 L360.465,273.825 L358.571,274.582 L358.815,275.193 L358.26,274.839 L358.162,274.994 L358.717,275.348 L359.322,275.09 L359.28,274.991 L358.675,275.249 L358.918,275.86 L359.059,275.804 L358.815,275.193 L358.26,274.839 L358.815,275.193" fill="#99BB54"/>
    <path d="M140.636,165.083 L140.342,164.495 C140.294,164.52 140.192,164.562 140.081,164.612 L139.813,164.734 L139.726,165.015 C139.696,165.111 139.684,165.193 139.677,165.24 L139.669,165.287 L139.675,165.288 L139.67,165.287 L139.669,165.287 L139.675,165.288 L139.67,165.287 L139.454,166.098 L140.293,166.114 L140.325,166.114 C140.521,166.114 140.771,166.074 140.995,165.883 C141.221,165.691 141.307,165.391 141.301,165.18 L141.286,164.986 L141.152,164.09 L140.342,164.495 L140.636,165.083 L139.985,165.181 L139.992,165.179 L139.985,165.18 L139.985,165.181 L139.992,165.179 L139.985,165.18 L140.383,165.18 L140.132,164.89 C140.011,164.989 139.979,165.151 139.985,165.18 L140.383,165.18 L140.132,164.89 L140.39,165.187 L140.279,164.807 L140.132,164.89 L140.39,165.187 L140.279,164.807 L140.325,164.965 L140.325,164.798 L140.279,164.807 L140.325,164.965 L140.325,164.798 L140.318,164.798 L140.306,165.456 L140.941,165.625 C140.965,165.533 140.972,165.469 140.978,165.436 L140.982,165.406 L140.983,165.405 L140.354,165.21 L140.628,165.808 C140.701,165.774 140.809,165.731 140.93,165.672 L140.636,165.083 L139.985,165.181 L140.636,165.083" fill="#99BB54"/>
    <path d="M359.378,274.891 L359.444,274.236 L359.301,274.228 C359.072,274.225 358.824,274.298 358.641,274.427 C358.456,274.555 358.339,274.711 358.254,274.849 L357.117,276.702 L359.091,275.79 C359.301,275.692 359.49,275.598 359.646,275.535 L360.364,275.244 L359.939,274.548 L359.768,274.269 L359.444,274.236 L359.378,274.891 L358.816,275.233 L358.838,275.269 L359.399,274.926 L359.152,274.316 C358.927,274.407 358.724,274.511 358.539,274.596 L358.815,275.193 L359.376,275.537 L359.402,275.498 L359.356,275.458 L359.394,275.506 L359.402,275.498 L359.356,275.458 L359.394,275.506 L359.277,275.359 L359.338,275.536 L359.394,275.506 L359.277,275.359 L359.338,275.536 L359.301,275.429 L359.301,275.544 L359.338,275.536 L359.301,275.429 L359.301,275.544 L359.301,275.507 L359.299,275.544 L359.301,275.544 L359.301,275.507 L359.299,275.544 L359.311,275.545 L359.378,274.891 L358.816,275.233 L359.378,274.891" fill="#99BB54"/>
    <path d="M340.295,314.821 C340.661,308.964 335.95,301.3 336.597,295.063 C337.427,287.216 341.927,284.404 345.97,277.569 C348.409,278.786 354.217,277.183 358.675,275.249 C356.341,263.366 342.292,248.144 328.511,241.485 C322.942,241.661 314.435,243.348 312.22,246.484 C312.255,246.688 312.642,247.672 312.712,248.038 C303.972,251.469 301.251,256.124 297.503,263.591 C294.853,268.822 293.678,271.129 294.69,277.675 C295.731,284.319 295.646,282.555 292.722,289.241 C290.036,295.45 288.475,303.409 290.936,310.434 C296.771,327.196 300.056,307.332 312.396,307.965 C310.778,311.495 310.764,317.282 310.884,321.163 C308.493,323.118 305.646,325.621 303.22,328.215 C306.334,328.933 309.245,329.172 311.396,328.497 C311.728,328.581 312.1,329.432 312.536,329.622 C313.787,328.504 315.313,328.25 316.909,328.511 C318.97,327.836 321.114,327.02 323.54,326.036 C329.917,323.434 339.761,323.308 340.295,314.821 z" fill="url(#Gradient_16)"/>
    <path d="M407.845,359.012 C418.603,351.819 429.923,338.108 423.946,325.551 C418.251,313.625 405.503,309.351 395.681,302.284 C387.63,296.504 375.24,279.995 363.92,276.88 C361.347,277.745 358.837,278.947 356.396,279.011 C349.38,279.207 341.701,288.995 340.857,296.118 C339.747,305.413 342.686,317.155 346.251,324.925 C350.8,334.818 353.282,346.933 358.323,355.982 C366.606,357.571 374.917,358.147 383.06,360.348 C392.622,362.929 399.034,364.897 407.845,359.012 z" fill="url(#Gradient_17)"/>
    <path d="M267.114,305.146 C269.771,304.625 271.966,303.74 274.392,302.671 C277.365,298.438 279.573,296.891 279.876,290.999 C280.122,285.817 279.771,280.677 280.333,275.826 C281.423,266.572 291.337,258.297 288.503,250.028 C296.751,254.008 300.006,248.692 305.786,244.522 C308.472,242.582 311.959,241.105 314.927,240.149 C317.12,239.425 322.872,239.671 320.987,238.827 L320.974,238.743 C319.511,238.405 318.076,238.187 316.685,238.124 C307.966,223.499 297.292,207.735 279.896,204.81 C276.873,204.297 273.548,205.625 270.615,205.394 C269.068,206.364 267.642,207.573 266.446,209.141 C272.092,209.05 283.553,206.8 284.214,215.54 C278.435,217.241 273.688,216.784 268.365,219.512 C265.884,220.778 264.478,223.26 261.489,223.78 C257.763,224.413 255.126,221.938 251.378,222.824 C251.167,227.015 250.857,232.731 247.778,236.05 C244.628,234.482 243.103,230.108 244.157,226.579 C243.784,226.543 240.817,226.93 240.255,227.12 C238.884,242.146 237.513,259.035 227.704,271.227 C224.589,275.08 209.584,289.171 216.123,294.479 C220.019,297.629 221.467,291.737 225.208,291.547 C226.825,291.456 229.11,295.028 231.853,294.957 C231.712,288.594 235.248,270.207 243.995,270.84 C244.192,271.621 244.649,272.683 244.79,273.28 C242.589,278.012 242.153,286 244.825,290.711 C252.841,289.579 250.534,298.262 253.698,303.149 C255.091,298.065 254.845,291.224 261.243,290.718 C261.756,295.625 263.177,297.468 260.435,301.862 C258.732,304.598 255.146,306.18 253.017,308.612 C254.739,309.512 256.497,310.229 258.269,310.722 C261.503,309.027 263.795,305.596 268.169,304.077 C268.063,304.527 267.311,304.745 267.114,305.146 z" fill="url(#Gradient_18)"/>
    <path d="M232.485,198.418 C229.286,197.293 225.503,197.167 222.571,199.065 C226.403,198.51 229.862,200.478 233.575,201.104 C230.868,205.042 228.568,205.288 223.767,205.457 C224.167,206.314 224.048,207.65 224.61,208.649 C220.834,208.241 216.264,206.54 212.537,208.937 C213.873,210.154 215.54,212.523 217.107,213.536 C200.036,215.758 185.354,217.051 186.642,239.481 C187.084,246.948 195.198,254.76 195.17,261.89 C195.149,268.64 184.061,278.167 193.201,284.144 C195.677,280.733 195.943,275.003 200.036,272.774 C194.341,270.665 194.798,261.854 201.948,263.141 C201.548,263.071 201.161,263.155 200.845,263.408 C201.231,263.788 201.709,264.062 202.216,264.238 C202.201,264.829 201.829,265.096 201.653,265.637 C207.665,266.284 215.701,252.854 219.97,261.777 C226.298,257.305 224.821,247.279 227.212,240.297 C230.003,232.105 237.548,225.608 243.292,219.055 C248.396,213.219 254.669,206.94 261.735,202.497 C259.38,201.407 257.095,200.24 255.056,199.353 C248.495,196.541 241.534,193.461 234.503,192.252 C233.013,192.998 231.501,193.75 230.024,194.495 C230.903,195.782 230.692,197.237 232.485,198.418 z" fill="url(#Gradient_19)"/>
    <path d="M186.55,174.702 C192.175,177.761 203.271,179.87 205.436,186.254 C197.61,186.641 188.49,184.18 180.243,183.793 C183.104,188.969 174.597,193.145 171.138,195.697 C172.389,195.866 173.423,196.464 174.583,196.731 C173.443,197.448 172.698,199.101 170.575,199.628 C171.756,200.647 171.433,201.899 173.894,202.722 C171.545,204.163 168.466,204.058 165.618,204.374 C167.396,206.61 169.767,208.417 172.628,208.944 C165.759,212.375 143.631,214.921 156.245,227.029 C154.544,231.782 150.185,235.136 148.722,239.692 C146.353,247.124 149.2,246.737 153.138,251.715 C156.287,255.73 158.798,258.058 162.615,261.566 C166.392,265.019 166.11,264.793 166.04,270.629 C168.009,271.86 170.364,272.5 172.881,272.422 C175.778,277.422 172.649,285.374 177.817,289.192 C178.042,282.28 185.706,267.761 177.853,264.878 C181.67,256.461 177.831,252.735 178.042,244.663 C178.274,235.727 184.954,229.511 187.956,221.91 C188.982,219.28 188.681,213.972 190.614,211.215 C193.482,207.145 198.644,207.468 201.808,205.309 C205.675,202.672 209.795,191.12 215.856,194.973 C220.146,193.707 221.678,191.211 225.264,189.151 C226.157,188.645 227.092,188.202 228.056,187.809 C224.188,183.449 215.729,180.981 211.392,178.731 C207.454,176.692 203.341,173.612 199.228,172.115 C196.464,171.088 193.623,171.102 190.755,171.032 C190.881,173.844 191.795,176.741 186.55,174.702 z" fill="url(#Gradient_20)"/>
    <path d="M160.323,165.111 C158.306,167.882 148.321,170.715 148.216,170.659 C148.181,170.8 148.251,171.573 148.286,171.594 C145.248,176.565 138.724,182.598 132.479,182.957 C132.831,184.518 132.325,185.783 133.183,187.218 C129.498,189.538 130.778,193.687 129.829,196.168 C128.036,200.753 127.037,202.447 121.581,204.465 C127.157,205.668 126.222,216.454 122.354,218.549 C116.927,221.502 113.622,213.922 114.339,209.95 C110.493,210.442 107.716,211.989 105.747,215.568 C106.253,216.313 106.604,217.375 107.279,218.141 C105.923,217.473 103.708,217.396 102.386,216.784 C102.175,217.03 101.985,217.297 101.774,217.543 C102.864,219.603 104.537,221.249 106.675,222.479 C103.813,227.359 96.888,224.357 92.444,222.711 C96.339,232.731 101.232,234.383 109.909,227.647 C108.419,229.757 108.011,232.633 108.967,235.368 C111.372,234.749 114.198,234.102 116.701,233.554 C113.692,243.292 115.415,248.319 117.404,257.446 C119.774,250.984 119.669,243.714 123.311,237.386 C123.029,250.33 125.751,263.19 134.631,272.985 C134.505,272.071 135.123,270.418 134.94,269.125 C137.282,271.122 139.919,272.071 142.942,271.628 C143.259,264.899 137.443,259.675 137.177,253.733 C137.001,249.655 138.597,243.151 140.748,239.783 C142.928,236.352 147.357,236.528 146.401,231.43 C145.417,232.984 143.026,234.503 141.55,235.684 C140.095,234.538 139.884,232.464 139.089,231.641 C139.216,231.761 135.489,225.995 135.362,225.707 C132.831,220.054 134.237,219.603 135.735,214.45 C137.985,206.694 139.286,203.066 148.11,200.317 C148.321,201.695 149.678,203.024 149.917,204.163 C151.604,202.532 154.333,199.016 156.478,198.004 C159.451,196.604 161.561,197.807 164.232,195.711 C166.792,193.672 166.849,190.473 168.732,187.942 C170.701,185.284 175.673,184.68 177.24,182.528 C178.731,180.433 178.169,176.601 179.892,174.125 C181.052,172.438 183.245,172.614 184.286,168.782 L172.065,161.237 C172.065,161.153 171.313,161.399 170.631,161.519 C170.54,161.448 170.42,161.385 170.308,161.329 C169.767,166.511 169.169,170.413 160.323,165.111 z" fill="url(#Gradient_21)"/>
    <path d="M471.878,397.297 C465.606,392.481 456.69,387.84 447.803,383.2 C438.888,378.559 431.8,371.809 429.24,363.421 C426.667,355.025 429.24,363.421 425.388,365.024 C421.556,366.606 423.896,371.718 422.167,375.135 C420.431,378.559 416.542,370.262 411.521,364.687 C407.845,360.608 402.972,359.097 398.845,359.469 C397.509,364.989 397.769,377.062 413.153,378.418 C423.714,379.34 417.196,379.445 419.537,384.55 C420.198,385.977 421.626,388.417 423.615,391.476 C424.811,388.551 425.584,383.671 426.428,379.445 C427.884,372.09 428.115,375.374 430.837,385.731 C433.544,396.081 435.428,394.625 437.341,403.07 C438.62,408.688 442.909,415.558 446.165,421.239 C450.384,425.985 454.342,429.599 457.837,432.313 C457.837,432.18 457.857,432.074 457.872,431.934 C458.068,425.331 452.669,423.735 448.675,414.13 C444.709,404.519 440.294,389.008 438.853,387.137 C437.396,385.253 439.872,383.102 447.409,387.172 C454.954,391.25 474.269,403.07 475.084,404.99 C475.872,406.909 478.157,402.128 471.878,397.297 z" fill="url(#Gradient_22)"/>
    <path d="M349.225,301.862 C345.899,308.549 356.13,311.432 357.058,317.036 C354.478,316.48 352.263,317.359 350.821,319.567 C352.178,320.734 353.739,323.062 355.321,323.969 C354.386,323.575 353.865,323.687 352.811,323.582 C353.261,323.469 353.739,323.504 354.175,323.68 C353.894,328.912 361.192,342.819 366.269,346.588 C370.811,349.963 382.862,353.647 388.825,353.422 C388.157,349.661 383.165,348.817 380.373,346.293 C376.928,343.192 376.745,340.956 374.692,337.159 C375.662,337.18 376.998,336.547 377.962,336.618 C377.209,333.665 375.22,330.852 374.748,327.632 C382.131,329.657 388.178,335.647 394.956,339.269 C400.37,342.151 408.034,343.122 405.876,350.624 C409.603,350.512 411.69,347.038 413.399,343.895 C413.308,343.312 412.978,341.202 412.787,340.541 C413.61,340.394 414.384,340.26 415.206,340.042 C411.817,338.193 407.88,336.365 404.856,333.109 C400.061,327.906 396.981,326.176 390.899,321.993 C386.026,318.625 382.567,317.247 377.435,314.976 C373.356,313.176 369.349,309.772 366.36,308.19 C365.565,306.96 365.587,305.765 365.354,304.358 C388.909,299.289 397.881,318.098 416.654,325.129 C415.192,316.973 397.86,308.999 393.888,301.44 C385.063,301.391 376.998,297.433 368.224,297.503 C364.975,293.39 354.759,290.633 349.436,292.391 C350.259,292.658 351.573,294.149 352.157,294.479 C351.384,294.761 350.681,294.585 349.978,294.957 C349.956,296.448 349.857,297.854 350.329,299.247 C350.842,298.41 350.505,298.769 350.026,298.473 C351.151,299.352 350.068,298.775 349.837,298.312 L349.225,301.862 z" fill="url(#Gradient_23)"/>
    <path d="M328.201,289.305 C325.86,290.816 325.825,291.934 325.979,294.585 C326.472,294.655 326.985,294.726 327.456,294.782 C327.407,297.418 328.019,299.816 329.678,301.44 C328.581,291.491 333.714,279.172 339.009,271.143 C336.372,269.378 332.821,268.394 331.956,272.247 C329.587,270.665 320.495,261.735 317.472,264.14 C314.294,266.692 323.575,274.37 325.558,276.88 C319.201,273.182 311.446,268.183 303.993,267.817 C304.626,269.055 331.978,286.872 328.201,289.305 z" fill="url(#Gradient_24)"/>
    <path d="M255.864,238.208 C256.462,242.483 259.857,250.246 252.454,250.021 C252.503,255.125 257.235,261.644 260.153,265.918 C259.485,265.672 257.798,265.687 257.06,265.44 C257.706,267.149 257.622,269.519 258.761,271.305 C258.079,271.41 257.692,271.305 257.235,271.438 C259.787,275.108 264.076,283.707 268.696,284.629 C270.841,279.707 269.87,273.899 272.12,268.696 C274.764,262.579 279.032,259.147 276.36,251.926 C276.761,252.299 277.099,252.742 277.345,253.255 C279.193,252.538 279.714,251.645 280.529,250.098 C277.998,245.915 273.779,242.258 269.505,239.797 C279.384,241.682 288.032,247.321 298.529,246.449 C298.474,242.258 308.212,241.147 311.354,237.772 C303.761,232.344 291.456,230.629 281.894,232.119 C282.829,232.78 284.271,234.7 285.22,235.262 C283.462,234.974 282.357,234.672 280.811,233.919 C280.318,233.947 279.946,234.819 279.784,234.805 C276.901,233.666 266.607,232.422 262.685,233.469 C263.162,234.151 263.388,235.649 264.245,236.577 C261.876,236.809 259.787,237.245 257.636,236.493 C258.009,237.772 257.974,236.739 258.36,236.261 L255.864,238.208 z" fill="url(#Gradient_25)"/>
    <path d="M208.951,221.34 C210.386,225.102 214.099,227.718 215.47,231.437 C208.755,230.46 212.271,234.243 212.692,236.894 C212.868,237.948 215.35,245.457 216.151,246.315 C222.479,253.044 222.501,237.562 222.606,234.362 L222.536,234.433 C228.146,233.729 235.614,226.34 234.264,220.56 C230.481,220.229 226.389,219.351 223.646,216.946 C230.552,215.287 234.404,215.715 240.943,216.292 C241.38,209.19 248.003,209.141 250.675,203.622 C247.321,201.618 242.47,199.213 239.517,202.265 C240.22,202.335 241.042,202.152 241.745,202.405 C244.769,207.187 241.028,208.206 237.091,207.137 C237.583,208.122 237.407,209.809 238.181,210.977 C233.659,210.336 228.667,210.52 224.068,209.788 C224.751,210.582 225.362,212.657 226.558,213.761 C222.606,214.745 217.79,214.879 216.63,219.421 C218.282,222.184 220.975,224.272 224.139,224.856 C221.847,228.02 216.419,228.758 215.329,223.836 C213.198,224.525 210.808,223.815 209.021,222.198 L208.951,221.34 z" fill="url(#Gradient_26)"/>
    <path d="M124.767,295.288 C114.36,295.752 112.862,300.667 108.151,303.465 C106.556,304.422 102.498,304.731 101.282,306.552 C99.208,309.632 102.372,311.516 102.337,313.246 C102.231,316.719 99.665,319.728 99.194,323.202 C98.66,327.104 100.825,328.054 100.86,330.297 C100.979,334.473 94.99,340.379 97.436,342.875 C84.217,345.266 95.819,353.781 98.209,357.62 C98.378,358.731 96.255,357.571 95.186,359.118 C94.131,360.644 95.256,362.036 96.466,362.753 C96.452,364.581 98.491,364.229 99.855,364.707 C99.503,367.492 95.025,369.081 95.165,372.386 C94.357,374.263 102.864,378.566 107.294,380.528 C111.639,382.461 117.714,380.437 121.159,377.441 C126.615,390.421 136.017,383.235 139.286,373.476 C142.274,373.722 145.276,374.038 147.92,373.476 C151.837,382.426 177.479,387.854 182.704,378.257 C188.856,382.004 200.162,385.499 203.818,378.032 C204.606,378.918 204.606,378.96 205.028,380.338 C208.544,382.37 211.581,385.921 215.892,387.848 C221.13,390.21 226.333,389.844 231.901,391.096 C241.485,393.262 247.229,392.671 256.089,389.282 C265.181,396.77 277.956,408.041 289.72,399.196 C295.436,402.184 299.683,408.913 305.631,412.851 C310.884,416.331 322.886,421.394 328.813,419.516 C329.144,419.615 329.517,420.465 329.974,420.655 C332.139,418.701 335.12,419.319 337.975,420.901 C331.099,434.823 365.889,444.969 374.2,446.706 C382.975,448.555 391.834,449.047 400.482,451.375 C410.045,453.948 416.458,455.938 425.282,450.046 C436.04,442.86 447.36,429.128 441.362,416.577 C435.688,404.659 422.927,400.377 413.118,393.325 C404.097,386.849 389.634,366.922 377.364,367.394 C377.167,366.901 376.998,366.409 376.815,365.917 C376.464,365.896 376.239,366.043 376.134,366.374 C373.181,350.976 350.42,329.868 334.107,329.144 C325.389,314.525 314.729,298.769 297.313,295.844 C294.1,295.309 290.542,296.856 287.49,296.385 C282.583,295.64 276.943,292.3 272.472,290.387 C264.548,286.991 256.005,283.18 247.462,282.793 C246.478,275.812 234.334,272.612 228.829,269.765 C224.892,267.74 220.764,264.653 216.644,263.141 C212.341,261.552 207.826,262.473 203.341,261.672 L203.481,261.749 C198.981,257.551 191.795,251.821 191.654,253.157 C191.654,252.784 192.034,252.397 189.841,252.257 C189.208,252.573 188.962,252.397 188.068,252.538 C185.481,250.71 180.876,250.625 177.029,249.444 C176.974,249.437 176.2,250.429 176.003,250.569 C174.104,247.757 167.728,247.567 164.845,248.003 C159.782,248.776 159.009,250.907 157.743,256.497 C158.003,256.497 158.115,256.37 158.06,256.11 C152.139,259.309 144.595,259.569 144.123,267.69 C135.419,268.64 138.639,274.707 135.524,280.41 C133.956,283.265 129.076,288.932 126.278,290 C123.761,291.421 124.154,293.481 124.767,295.288 z" fill="url(#Gradient_27)"/>
    <path d="M215.729,360.629 C209.612,356.812 200.739,362.31 194.306,357.079 C188.279,352.185 189.264,347.038 180.384,345.547 C175.462,344.718 175.005,345.793 171.384,342.665 C169.31,340.872 168.521,337.68 165.864,335.774 C157.778,329.973 148.497,335.247 141.55,325.607 C136.318,318.365 135.208,309.716 127.755,303.726 C122.284,299.331 115.042,297.046 109.628,302.868 C106.38,306.362 106.956,308.732 107.35,312.965 C107.646,316.691 107.561,320.305 107.786,324.109 C107.892,326.036 109.459,329.214 109.881,331.189 C111.021,336.576 111.407,333.96 109.558,339.198 C107.631,344.732 107.982,346.019 107.646,351.454 C107.561,353.148 105.606,354.491 105.592,357.043 C105.571,360.13 107.561,361.825 107.912,364.792 C108.313,367.921 107.294,370.748 107.716,373.645 C107.962,375.479 109.263,377.132 109.614,378.911 C109.769,379.698 109.86,380.472 109.896,381.21 C113.833,381.667 118.368,379.874 121.159,377.441 C126.615,390.421 136.017,383.235 139.286,373.476 C140.306,373.567 141.311,373.651 142.323,373.715 C141.501,370.733 140.537,368.012 139.884,366.058 C138.126,360.777 134.259,347.882 139.131,343.438 C146.528,336.702 146.021,349.021 146.81,353.008 C148.251,360.327 149.306,370.762 152.716,378.433 C158.607,382.18 168.185,384.233 175.131,382.918 C174.597,380.816 173.353,378.665 172.86,376.309 C173.19,376.394 173.753,377.09 174.076,377.329 C179.962,369.749 181.979,374.031 189.489,374.812 C192.583,375.128 196.154,374.066 199.136,374.073 C203.165,374.094 207.419,375.838 211.511,375.008 C218.162,373.637 222.972,365.137 215.729,360.629" fill="#D98573"/>
    <path d="M275.024,392.657 C281.599,396.222 286.998,393.269 293.045,396.397 C296.083,397.979 299.12,400.82 301.427,402.796 C302.622,403.836 303.712,406.086 305.308,406.979 C308.317,408.653 311.095,406.86 313.591,409.757 C320.06,410.896 327.639,406.804 333.7,407.992 C339.185,409.054 344.232,415.332 346.778,419.847 C350.659,426.793 353.401,434.408 362.472,435.597 C369.7,436.546 378.349,434.296 381.92,426.983 C374.798,418.968 363.99,415.417 356.326,407.753 C351.011,402.444 347.763,397.564 341.209,393.655 C334.811,389.809 329.341,389.071 321.606,389.964 C316.052,390.618 309.146,394.042 308.036,386.694 C307.298,386.504 306.404,386.54 305.659,386.54 C305.561,386.687 305.308,385.373 305.399,385.394 C305.716,385.358 308.739,384.409 307.839,384.599 C308.725,381.829 308.142,377.005 309.583,373.019 C311.938,366.5 316.86,362.317 317.19,354.322 C313.014,354.618 308.95,357.36 305.997,360.327 C304.521,361.825 302.763,366.269 300.864,367.063 C296.519,368.898 286.239,362.598 281.353,362.099 C275.354,361.473 265.954,361.129 260.821,365.01 C243.981,377.75 265.567,387.524 275.024,392.657" fill="#D98573"/>
    <path d="M436.862,428.108 C444.737,427.546 445.216,424.874 454.834,430.133 C464.425,435.379 486.222,435.801 494.94,437.812 C503.646,439.836 520.204,431.399 535.933,430.274 C551.683,429.149 564.761,427.546 569.443,428.544 C574.134,429.515 575.118,434.071 570.618,435.702 C566.118,437.348 558.806,436.546 556.837,436.687 C554.868,436.827 565.661,440.02 565.661,440.02 L551.177,440.399 L562.181,446.853 L540.896,444.421 C540.896,444.421 560.95,448.26 561.091,450.228 C561.231,452.197 545.607,454.637 545.607,454.637 L544.005,460.03 L531.911,456.937 L528.311,461.809 C528.311,461.809 522.735,457.59 514.811,457.499 C506.88,457.4 494.364,457.64 486.454,457.541 C478.529,457.45 461.19,463.961 456.409,461.668 C451.628,459.369 415.403,450.749 408.935,443.296 C402.479,435.843 417.196,411.058 421.134,410.776 C425.071,410.495 436.862,428.108 436.862,428.108 z" fill="url(#Gradient_28)"/>
    <path d="M532.333,444.372 C532.192,442.41 525.021,443.577 508.511,443.437 C492.029,443.296 487.951,441.608 477.925,439.696 C472.743,438.69 469.065,436.37 465.571,433.621 C461.388,432.749 457.591,431.645 454.834,430.133 C445.216,424.874 444.737,427.546 436.862,428.108 C436.862,428.108 427.342,413.905 422.54,411.219 C417.97,418.616 412.646,427.279 407.472,435.716 C407.071,438.831 407.423,441.538 408.935,443.296 C415.403,450.749 451.628,459.369 456.409,461.668 C461.19,463.961 478.529,457.45 486.454,457.541 C490.567,457.59 495.896,457.555 501.17,457.52 C496.825,454.63 493.998,452.282 493.857,450.418 C493.661,447.796 505.628,448.921 520.767,448.499 C535.904,448.077 532.474,446.34 532.333,444.372 z" fill="url(#Gradient_29)"/>
    <path d="M569.443,428.544 C564.761,427.546 551.683,429.149 535.933,430.274 C532.649,430.499 529.345,431.062 526.075,431.779 C534.357,432.412 535.638,433.276 541.474,433.832 C549.433,434.577 531.826,437.165 528.592,438.051 C525.337,438.937 536.045,440.821 541.333,441.102 C544.693,441.278 554.607,439.654 563.833,439.464 C560.845,438.536 555.396,436.792 556.837,436.687 C558.806,436.546 566.118,437.348 570.618,435.702 C575.118,434.071 574.134,429.515 569.443,428.544 z" fill="url(#Gradient_30)"/>
    <path d="M430.591,469.452 C441.151,470.366 434.612,470.478 436.975,475.59 C439.31,480.702 451.825,498.934 463.3,511.956 C474.782,524.985 484.345,529.569 488.373,530.61 C492.409,531.637 492.747,526.989 493.323,526.286 C493.956,525.59 493.998,526.236 496.67,526.707 C499.342,527.179 498.357,522.644 498.357,522.644 C506.282,522.735 503.42,519.641 503.42,519.641 C503.42,519.641 501.55,511.865 505.628,513.552 C509.692,515.24 512.308,515.05 510.128,511.907 C507.92,508.778 508.849,512.659 507.92,508.778 C506.985,504.875 500.354,504.693 499.44,500.805 C498.498,496.909 509.565,504.032 509.565,504.032 C515.05,506.943 520.154,504.594 517.989,502.112 C515.845,499.637 517.623,496.86 517.623,496.86 L520.099,494.708 C520.099,494.708 516.126,494.329 515.88,491.052 C515.654,487.769 519.17,490.813 512.659,482.706 C506.142,474.606 499.427,463.862 478.529,457.45 C457.646,451.03 458.097,448.358 452.81,448.077 C447.521,447.796 453.126,452.676 442.318,448.836 C431.47,444.983 418.271,444.618 416.612,449.343 C414.981,454.075 413.997,467.997 430.591,469.452 z" fill="url(#Gradient_31)"/>
    <path d="M376.253,366.219 L376.009,365.608 L375.868,365.664 L375.351,365.871 L375.491,366.514 L375.791,367.897 L378.238,364.718 L376.009,365.608 L376.253,366.219 L375.731,365.818 L375.612,365.973 L376.134,366.374 L376.776,366.234 L376.755,366.135 L376.112,366.275 L376.356,366.886 L376.497,366.83 L376.253,366.219 L375.731,365.818 L376.253,366.219" fill="#BED559"/>
    <path d="M158.06,256.11 L157.753,255.528 L157.486,255.668 L157.252,255.791 L157.168,256.041 C157.136,256.134 157.084,256.302 157.085,256.497 L157.085,257.154 L157.743,257.154 C157.935,257.153 158.171,257.122 158.4,256.943 C158.512,256.855 158.605,256.73 158.658,256.601 C158.713,256.471 158.731,256.343 158.731,256.229 C158.73,256.136 158.719,256.055 158.704,255.978 L158.528,255.12 L157.753,255.528 L158.06,256.11 L157.415,256.241 L157.416,256.246 L157.566,256.229 L157.415,256.229 L157.416,256.246 L157.566,256.229 L157.415,256.229 L157.771,256.229 L157.445,256.092 L157.415,256.229 L157.771,256.229 L157.445,256.092 L157.846,256.26 L157.656,255.867 C157.584,255.896 157.481,255.996 157.445,256.092 L157.846,256.26 L157.656,255.867 L157.79,256.143 L157.733,255.841 L157.656,255.867 L157.79,256.143 L157.733,255.841 L157.757,255.971 L157.746,255.839 L157.733,255.841 L157.757,255.971 L157.746,255.839 L157.743,255.839 L157.743,256.497 L158.401,256.497 L158.331,256.497 L158.399,256.512 L158.401,256.497 L158.331,256.497 L158.399,256.512 L158.416,256.459 L157.792,256.25 L158.098,256.832 L158.365,256.692 L158.06,256.11 L157.415,256.241 L158.06,256.11" fill="#BED559"/>
    <path d="M376.815,365.917 L376.857,365.26 L376.77,365.257 C376.543,365.256 376.303,365.314 376.106,365.439 C375.908,365.562 375.77,365.734 375.679,365.898 L374.689,367.666 L376.529,366.816 C376.732,366.722 376.901,366.641 377.098,366.556 L377.792,366.255 L377.376,365.574 L377.198,365.282 L376.857,365.26 L376.815,365.917 L376.254,366.26 L376.275,366.295 L376.837,365.952 L376.575,365.348 C376.351,365.446 376.168,365.534 375.977,365.622 L376.253,366.219 L376.827,366.54 L376.833,366.53 L376.787,366.498 L376.824,366.539 L376.833,366.53 L376.787,366.498 L376.824,366.539 L376.722,366.427 L376.774,366.569 L376.824,366.539 L376.722,366.427 L376.774,366.569 L376.745,366.49 L376.759,366.573 L376.774,366.569 L376.745,366.49 L376.759,366.573 L376.77,366.573 L376.77,366.48 L376.766,366.573 L376.77,366.573 L376.77,366.48 L376.766,366.573 L376.773,366.573 L376.815,365.917 L376.254,366.26 L376.815,365.917" fill="#BED559"/>
    <path d="M357.732,405.854 C358.099,400.004 353.373,392.34 354.021,386.09 C354.864,378.243 359.35,375.43 363.407,368.61 C365.833,369.819 371.654,368.216 376.112,366.275 C373.764,354.393 359.729,339.184 345.948,332.519 C340.365,332.694 331.872,334.368 329.657,337.511 C329.692,337.722 330.079,338.699 330.149,339.064 C321.396,342.503 318.688,347.165 314.927,354.618 C312.29,359.856 311.095,362.155 312.128,368.715 C313.154,375.346 313.063,373.581 310.159,380.282 C307.474,386.483 305.912,394.45 308.353,401.474 C314.209,418.229 317.493,398.359 329.833,398.992 C328.201,402.529 328.181,408.315 328.3,412.204 C325.909,414.145 323.068,416.647 320.636,419.249 C323.751,419.973 326.669,420.198 328.813,419.516 C329.144,419.615 329.517,420.465 329.974,420.655 C331.204,419.53 332.729,419.27 334.333,419.551 C336.407,418.862 338.537,418.054 340.978,417.062 C347.354,414.454 357.185,414.341 357.732,405.854 z" fill="url(#Gradient_32)"/>
    <path d="M425.282,450.046 C436.04,442.86 447.36,429.128 441.362,416.577 C435.688,404.659 422.927,400.377 413.118,393.325 C405.067,387.531 392.657,371.029 381.357,367.914 C378.784,368.779 376.274,369.981 373.813,370.051 C366.817,370.241 359.139,380.036 358.295,387.151 C357.17,396.439 360.123,408.182 363.667,415.965 C368.224,425.844 370.72,437.966 375.761,447.016 C384.029,448.604 392.354,449.188 400.482,451.375 C410.045,453.948 416.458,455.938 425.282,450.046 z" fill="url(#Gradient_33)"/>
    <path d="M284.552,396.18 C287.209,395.659 289.403,394.766 291.808,393.711 C294.782,389.465 297.011,387.925 297.292,382.04 C297.545,376.851 297.208,371.704 297.771,366.852 C298.839,357.606 308.774,349.323 305.927,341.062 C314.167,345.034 317.423,339.726 323.224,335.563 C325.909,333.623 329.376,332.132 332.35,331.168 C334.558,330.458 340.295,330.697 338.411,329.853 L338.411,329.776 C336.948,329.446 335.514,329.214 334.107,329.144 C325.389,314.525 314.729,298.769 297.313,295.844 C294.29,295.33 290.985,296.659 288.032,296.434 C286.485,297.397 285.058,298.607 283.862,300.168 C289.509,300.09 300.97,297.84 301.638,306.559 C295.872,308.282 291.104,307.818 285.782,310.539 C283.321,311.805 281.915,314.293 278.927,314.807 C275.2,315.439 272.542,312.972 268.815,313.865 C268.591,318.055 268.295,323.758 265.216,327.09 C262.065,325.508 260.519,321.149 261.595,317.612 C261.208,317.577 258.24,317.964 257.692,318.14 C256.3,333.172 254.95,350.062 245.12,362.261 C242.026,366.114 227.021,380.211 233.561,385.52 C237.442,388.663 238.904,382.778 242.646,382.581 C244.263,382.497 246.526,386.062 249.269,385.991 C249.149,379.628 252.686,361.241 261.433,361.867 C261.63,362.662 262.087,363.716 262.206,364.321 C260.026,369.046 259.591,377.026 262.263,381.744 C270.278,380.605 267.958,389.289 271.122,394.183 C272.528,389.099 272.282,382.25 278.681,381.737 C279.173,386.659 280.614,388.508 277.872,392.903 C276.149,395.638 272.563,397.206 270.433,399.653 C272.177,400.546 273.92,401.27 275.706,401.762 C278.927,400.054 281.212,396.637 285.606,395.118 C285.501,395.554 284.728,395.786 284.552,396.18 z" fill="url(#Gradient_34)"/>
    <path d="M249.901,289.452 C246.724,288.327 242.94,288.207 239.987,290.099 C243.826,289.543 247.3,291.512 250.998,292.145 C248.306,296.082 245.985,296.329 241.204,296.483 C241.604,297.348 241.485,298.684 242.026,299.683 C238.251,299.282 233.681,297.573 229.954,299.964 C231.29,301.18 232.978,303.55 234.545,304.569 C217.474,306.791 202.778,308.078 204.079,330.515 C204.521,337.989 212.622,345.793 212.607,352.909 C212.587,359.68 201.478,369.207 210.639,375.184 C213.114,371.774 213.36,366.022 217.459,363.793 C211.778,361.698 212.235,352.895 219.386,354.168 C218.964,354.104 218.599,354.196 218.261,354.442 C218.669,354.814 219.126,355.089 219.653,355.265 C219.618,355.862 219.267,356.129 219.076,356.685 C225.081,357.318 233.118,343.895 237.407,352.818 C243.714,348.339 242.259,338.305 244.628,331.33 C247.427,323.146 254.985,316.649 260.716,310.082 C265.813,304.253 272.106,297.981 279.173,293.53 C276.817,292.44 274.511,291.266 272.472,290.387 C265.933,287.589 258.958,284.495 251.912,283.286 C250.436,284.024 248.938,284.776 247.44,285.536 C248.341,286.809 248.13,288.278 249.901,289.452 z" fill="url(#Gradient_35)"/>
    <path d="M203.974,265.743 C209.612,268.801 220.708,270.904 222.873,277.288 C215.026,277.675 205.928,275.207 197.681,274.827 C200.528,280.002 192.021,284.179 188.561,286.731 C189.826,286.907 190.86,287.498 192.006,287.765 C190.86,288.489 190.122,290.141 188.013,290.662 C189.173,291.688 188.87,292.926 191.317,293.762 C188.962,295.189 185.889,295.098 183.056,295.415 C184.834,297.629 187.204,299.457 190.052,299.985 C183.196,303.409 161.048,305.961 173.683,318.062 C171.981,322.815 167.622,326.176 166.159,330.711 C163.769,338.165 166.638,337.778 170.561,342.749 C173.704,346.757 176.214,349.098 180.053,352.593 C183.829,356.052 183.548,355.827 183.478,361.663 C185.425,362.894 187.787,363.526 190.298,363.456 C193.201,368.448 190.065,376.415 195.24,380.226 C195.466,373.321 203.13,358.801 195.29,355.918 C199.107,347.488 195.255,343.769 195.466,335.683 C195.69,326.753 202.37,320.551 205.38,312.937 C206.42,310.321 206.118,305.005 208.052,302.249 C210.899,298.185 216.067,298.494 219.245,296.336 C223.099,293.706 227.212,282.161 233.279,286 C237.568,284.741 239.095,282.238 242.701,280.171 C243.595,279.665 244.529,279.243 245.472,278.849 C241.604,274.49 233.167,272.015 228.829,269.765 C224.892,267.74 220.764,264.653 216.644,263.141 C213.901,262.122 211.04,262.136 208.192,262.059 C208.298,264.878 209.212,267.782 203.974,265.743 z" fill="url(#Gradient_36)"/>
    <path d="M177.761,256.152 C175.743,258.922 165.759,261.749 165.639,261.7 C165.618,261.833 165.688,262.614 165.709,262.628 C162.686,267.606 156.146,273.632 149.917,274.004 C150.255,275.559 149.763,276.817 150.606,278.258 C146.915,280.579 148.201,284.727 147.245,287.195 C145.459,291.793 144.454,293.481 139.019,295.499 C144.573,296.708 143.646,307.487 139.778,309.582 C134.35,312.536 131.06,304.956 131.763,300.983 C127.931,301.476 125.153,303.022 123.17,306.594 C123.677,307.347 124.028,308.401 124.696,309.168 C123.36,308.507 121.131,308.422 119.823,307.825 C119.612,308.071 119.401,308.324 119.212,308.577 C120.302,310.637 121.954,312.29 124.099,313.52 C121.251,318.386 114.325,315.391 109.86,313.745 C113.763,323.765 118.649,325.417 127.333,318.688 C125.842,320.797 125.435,323.666 126.404,326.401 C128.795,325.769 131.622,325.136 134.139,324.573 C131.115,334.326 132.831,339.36 134.842,348.479 C137.19,342.011 137.092,334.748 140.728,328.426 C140.446,341.364 143.167,354.21 152.048,364.019 C151.942,363.104 152.561,361.445 152.378,360.172 C154.72,362.148 157.342,363.098 160.365,362.668 C160.675,355.933 154.881,350.715 154.614,344.774 C154.438,340.682 156.021,334.185 158.165,330.817 C160.365,327.386 164.774,327.555 163.825,322.464 C162.854,324.011 160.45,325.543 158.987,326.718 C157.532,325.579 157.3,323.504 156.526,322.675 C156.639,322.794 152.912,317.029 152.786,316.733 C150.255,311.094 151.675,310.637 153.173,305.483 C155.401,297.721 156.724,294.107 165.548,291.344 C165.737,292.722 167.095,294.058 167.341,295.189 C169.042,293.551 171.756,290.05 173.915,289.03 C176.868,287.645 178.998,288.84 181.649,286.738 C184.229,284.706 184.271,281.507 186.149,278.976 C188.139,276.325 193.089,275.706 194.657,273.562 C196.169,271.466 195.592,267.641 197.308,265.159 C198.475,263.472 200.683,263.647 201.709,259.801 L189.503,252.278 C189.503,252.18 188.751,252.426 188.068,252.538 C187.956,252.482 187.837,252.426 187.731,252.362 C187.204,257.551 186.606,261.454 177.761,256.152 z" fill="url(#Gradient_37)"/>
    <path d="M489.315,488.331 C483.044,483.508 474.128,478.867 465.22,474.227 C456.325,469.593 449.237,462.843 446.657,454.447 C444.091,446.066 446.657,454.447 442.825,456.043 C438.972,457.64 441.313,462.744 439.591,466.168 C437.868,469.593 433.966,461.296 428.959,455.706 C425.282,451.635 420.396,450.137 416.282,450.503 C414.925,456.008 415.192,468.102 430.591,469.452 C441.151,470.366 434.612,470.478 436.975,475.59 C437.622,477.004 439.063,479.457 441.053,482.516 C442.228,479.577 443.021,474.711 443.865,470.472 C445.3,463.124 445.532,466.394 448.253,476.758 C450.981,487.115 452.845,485.659 454.778,494.097 C456.058,499.722 460.347,506.591 463.581,512.266 C467.8,517.012 471.759,520.633 475.274,523.34 C475.274,523.206 475.295,523.101 475.295,522.96 C475.485,516.351 470.092,514.762 466.112,505.157 C462.126,495.552 457.717,480.034 456.269,478.164 C454.813,476.293 457.295,474.135 464.847,478.206 C472.392,482.284 491.706,494.097 492.501,496.016 C493.31,497.943 495.595,493.162 489.315,488.331 z" fill="url(#Gradient_38)"/>
    <path d="M366.662,392.903 C363.315,399.582 373.567,402.473 374.481,408.069 C371.894,407.507 369.686,408.386 368.237,410.601 C369.615,411.782 371.162,414.102 372.737,414.995 C371.81,414.608 371.282,414.714 370.248,414.608 C370.698,414.503 371.162,414.531 371.599,414.707 C371.331,419.938 378.63,433.86 383.706,437.629 C388.248,441.004 400.3,444.674 406.263,444.456 C405.595,440.694 400.581,439.836 397.79,437.319 C394.345,434.226 394.169,431.997 392.13,428.2 C393.079,428.214 394.415,427.581 395.399,427.645 C394.626,424.698 392.657,421.886 392.186,418.672 C399.548,420.69 405.615,426.688 412.38,430.309 C417.794,433.192 425.458,434.155 423.292,441.665 C427.04,441.552 429.128,438.079 430.837,434.922 C430.731,434.352 430.415,432.243 430.204,431.575 C431.026,431.427 431.8,431.293 432.63,431.082 C429.255,429.219 425.303,427.391 422.294,424.136 C417.498,418.933 414.404,417.21 408.337,413.026 C403.45,409.651 400.005,408.28 394.872,406.002 C390.794,404.202 386.771,400.813 383.776,399.231 C382.989,397.986 383.024,396.805 382.778,395.399 C406.347,390.315 415.298,409.124 434.071,416.155 C432.615,407.999 415.298,400.04 411.311,392.481 C402.501,392.418 394.436,388.466 385.661,388.543 C382.392,384.43 372.196,381.66 366.853,383.425 C367.696,383.692 368.997,385.168 369.573,385.52 C368.821,385.801 368.097,385.625 367.415,385.991 C367.394,387.468 367.274,388.895 367.745,390.28 C368.279,389.437 367.942,389.802 367.464,389.5 C368.575,390.386 367.485,389.809 367.274,389.338 L366.662,392.903 z" fill="url(#Gradient_39)"/>
    <path d="M345.639,380.331 C343.276,381.857 343.263,382.968 343.417,385.625 C343.909,385.696 344.401,385.745 344.894,385.815 C344.845,388.452 345.442,390.843 347.095,392.481 C346.005,382.532 351.151,370.199 356.425,362.176 C353.81,360.418 350.237,359.434 349.38,363.28 C347.024,361.698 337.919,352.769 334.896,355.18 C331.717,357.711 341.013,365.404 342.981,367.914 C336.639,364.215 328.884,359.216 321.431,358.836 C322.042,360.088 349.394,377.905 345.639,380.331 z" fill="url(#Gradient_40)"/>
    <path d="M273.302,329.235 C273.899,333.524 277.274,341.272 269.892,341.047 C269.94,346.159 274.651,352.677 277.591,356.952 C276.923,356.692 275.235,356.713 274.497,356.481 C275.144,358.176 275.045,360.559 276.198,362.338 C275.517,362.437 275.115,362.331 274.651,362.465 C277.204,366.149 281.514,374.734 286.112,375.669 C288.264,370.733 287.308,364.933 289.558,359.729 C292.201,353.605 296.47,350.188 293.776,342.953 C294.198,343.332 294.536,343.775 294.761,344.289 C296.61,343.579 297.138,342.679 297.946,341.125 C295.415,336.941 291.217,333.292 286.928,330.831 C296.821,332.715 305.47,338.354 315.967,337.476 C315.911,333.292 325.628,332.188 328.792,328.813 C321.185,323.371 308.88,321.655 299.331,323.153 C300.267,323.821 301.708,325.719 302.657,326.296 C300.878,326 299.774,325.698 298.228,324.946 C297.756,324.981 297.362,325.846 297.208,325.839 C294.325,324.7 284.045,323.448 280.107,324.503 C280.6,325.192 280.811,326.683 281.669,327.597 C279.313,327.843 277.204,328.286 275.06,327.52 C275.425,328.813 275.411,327.766 275.798,327.301 L273.302,329.235 z" fill="url(#Gradient_41)"/>
    <path d="M226.368,312.367 C227.823,316.129 231.521,318.758 232.886,322.464 C226.192,321.5 229.693,325.276 230.13,327.927 C230.284,328.982 232.787,336.491 233.575,337.349 C239.917,344.071 239.938,328.588 240.029,325.403 L239.974,325.466 C245.563,324.77 253.037,317.366 251.701,311.594 C247.904,311.263 243.826,310.377 241.084,307.973 C247.975,306.313 251.821,306.742 258.381,307.332 C258.817,300.231 265.427,300.168 268.099,294.655 C264.737,292.651 259.886,290.254 256.954,293.305 C257.636,293.375 258.479,293.179 259.169,293.446 C262.192,298.213 258.466,299.247 254.514,298.171 C255.021,299.155 254.845,300.843 255.597,302.024 C251.097,301.37 246.104,301.56 241.485,300.814 C242.167,301.616 242.8,303.69 243.981,304.801 C240.044,305.786 235.206,305.919 234.067,310.447 C235.698,313.211 238.412,315.313 241.576,315.883 C239.284,319.054 233.842,319.792 232.745,314.87 C230.636,315.559 228.245,314.849 226.438,313.239 L226.368,312.367 z" fill="url(#Gradient_42)"/>
  </g>
</svg>
