<?xml version="1.0" standalone="no"?>
<!DOCTYPE svg PUBLIC "-//W3C//DTD SVG 20010904//EN"
 "http://www.w3.org/TR/2001/REC-SVG-20010904/DTD/svg10.dtd">
<svg version="1.0" xmlns="http://www.w3.org/2000/svg"
 width="360.000000pt" height="270.000000pt" viewBox="0 0 360.000000 270.000000"
 preserveAspectRatio="xMidYMid meet">

<g transform="translate(0.000000,270.000000) scale(0.100000,-0.100000)"
fill="#000000" stroke="none">
<path d="M236 2010 c-85 -43 -129 -114 -128 -206 1 -105 63 -168 207 -209 116
-34 147 -62 124 -116 -23 -57 -112 -78 -163 -38 -15 11 -36 39 -47 61 -20 38
-22 40 -57 33 -45 -8 -92 -32 -92 -46 0 -6 12 -35 26 -64 30 -66 82 -110 148
-130 192 -57 374 83 334 258 -19 86 -85 139 -218 176 -51 14 -82 29 -97 46
-30 34 -29 48 5 86 23 26 36 32 71 33 40 1 47 -3 82 -43 37 -44 38 -44 76 -33
58 17 77 35 70 63 -12 43 -45 88 -88 116 -37 24 -54 28 -128 31 -70 2 -93 -2
-125 -18z"/>
<path d="M1631 2011 c-128 -48 -219 -159 -243 -298 -10 -60 -9 -80 5 -138 30
-122 98 -203 217 -259 58 -27 75 -31 155 -31 80 0 97 4 157 32 119 56 197 159
218 287 25 157 -59 314 -211 392 -74 38 -216 45 -298 15z m239 -144 c187 -95
154 -384 -50 -438 -188 -49 -352 159 -264 334 62 122 193 165 314 104z"/>
<path d="M767 2013 c-4 -3 -7 -162 -7 -353 0 -256 3 -349 12 -358 15 -15 82
-16 109 -2 17 10 19 22 19 135 l0 125 94 0 c110 0 166 17 214 63 64 61 88 136
71 217 -15 68 -57 122 -120 154 -51 25 -60 26 -219 26 -92 0 -170 -3 -173 -7z
m345 -163 c25 -27 29 -38 24 -69 -3 -21 -16 -45 -31 -58 -23 -20 -37 -23 -116
-23 l-89 0 0 96 0 96 91 -4 c89 -4 93 -5 121 -38z"/>
<path d="M2307 2013 c-4 -3 -7 -163 -7 -354 0 -334 1 -349 19 -359 27 -14 94
-13 109 2 8 8 12 53 12 136 l0 124 70 -4 c96 -5 120 -29 160 -159 18 -58 37
-99 46 -103 28 -11 90 -6 109 8 19 14 19 16 2 81 -30 110 -57 173 -85 197
l-27 22 46 46 c33 31 51 59 59 90 28 105 -32 222 -137 267 -34 14 -363 20
-376 6z m305 -134 c69 -19 90 -99 39 -150 -28 -28 -33 -29 -120 -29 l-91 0 0
88 c0 49 3 92 7 95 10 11 124 8 165 -4z"/>
<path d="M2970 2001 c-13 -25 -13 -67 0 -92 9 -17 22 -19 105 -19 l95 0 0
-290 c0 -325 -4 -310 77 -310 71 0 68 -12 70 307 l3 288 97 5 98 5 0 60 0 60
-267 3 c-256 2 -268 2 -278 -17z"/>
<path d="M130 1121 c-6 -12 -10 -105 -10 -234 0 -195 2 -215 18 -230 24 -22
35 -21 55 1 13 14 17 38 17 92 0 53 4 78 16 91 15 17 21 12 106 -91 51 -64 97
-110 107 -110 20 0 41 19 41 37 0 7 -40 64 -89 126 l-89 112 85 92 c90 99 100
125 49 131 -26 3 -41 -9 -125 -97 -53 -56 -98 -101 -101 -101 -3 0 -4 38 -2
86 2 56 -1 90 -8 100 -18 20 -57 17 -70 -5z"/>
<path d="M758 1123 c-9 -10 -55 -116 -103 -236 -93 -230 -95 -247 -40 -247 22
0 49 41 69 108 7 21 12 22 105 22 l97 0 29 -62 c32 -67 59 -84 85 -53 11 14 1
48 -75 238 -48 122 -95 228 -103 235 -22 17 -46 15 -64 -5z m65 -191 c15 -37
27 -71 27 -75 0 -4 -27 -7 -61 -7 -54 0 -60 2 -55 18 33 87 52 132 57 132 3 0
18 -30 32 -68z"/>
<path d="M1141 1126 c-8 -9 -11 -82 -9 -241 3 -204 5 -229 21 -239 12 -8 22
-8 35 0 15 10 18 33 22 177 l5 166 90 -126 c126 -178 163 -223 183 -223 39 0
42 16 42 257 l0 233 -25 6 c-50 12 -55 -4 -55 -179 l0 -160 -111 154 c-61 85
-118 162 -126 172 -19 20 -56 22 -72 3z"/>
<path d="M1838 1127 c-7 -8 -54 -113 -103 -235 -76 -190 -87 -223 -75 -237 26
-31 53 -14 85 53 l29 62 97 0 96 0 18 -47 c29 -78 65 -104 95 -68 10 12 -4 56
-80 244 -51 127 -98 232 -107 235 -23 9 -41 7 -55 -7z m59 -184 c12 -32 25
-66 29 -75 5 -16 -1 -18 -55 -18 -34 0 -61 3 -61 7 0 14 53 143 59 143 3 0 16
-26 28 -57z"/>
<path d="M2222 1128 c-9 -9 -12 -75 -12 -233 0 -202 2 -223 18 -238 15 -14 41
-17 143 -17 135 0 149 5 149 51 0 35 -13 39 -128 39 l-97 0 3 184 c2 121 -1
192 -8 206 -12 22 -49 27 -68 8z"/>
<path d="M2653 1134 c-18 -8 -19 -464 -1 -482 17 -17 259 -17 276 0 7 7 12 21
12 33 0 38 -19 45 -122 45 l-98 0 0 60 0 60 78 0 c92 0 118 13 108 53 -6 27
-7 27 -96 27 l-90 0 0 65 0 64 101 3 c84 3 104 6 113 21 8 12 8 22 0 35 -10
15 -29 17 -140 19 -71 1 -135 -1 -141 -3z"/>
<path d="M3093 1126 c-4 -8 -6 -117 -3 -242 4 -199 7 -228 22 -238 13 -8 22
-6 38 9 20 18 21 27 18 172 -2 84 0 152 4 151 4 -2 60 -77 126 -168 123 -171
148 -193 177 -153 11 14 14 66 15 239 0 241 -3 253 -55 240 l-25 -6 -2 -167
-3 -166 -110 154 c-60 84 -118 162 -127 171 -22 22 -64 24 -75 4z"/>
</g>
</svg>
