<?xml version="1.0" standalone="no"?>
<!DOCTYPE svg PUBLIC "-//W3C//DTD SVG 20010904//EN"
 "http://www.w3.org/TR/2001/REC-SVG-20010904/DTD/svg10.dtd">
<svg version="1.0" xmlns="http://www.w3.org/2000/svg"
 width="1200.000000pt" height="540.000000pt" viewBox="0 0 1200.000000 540.000000"
 preserveAspectRatio="xMidYMid meet">

<g transform="translate(0.000000,540.000000) scale(0.100000,-0.100000)"
fill="#000000" stroke="none">
<path d="M7330 3413 c0 -1265 4 -2028 10 -2098 20 -218 67 -384 155 -553 204
-390 563 -656 995 -737 140 -26 363 -25 505 3 250 49 475 153 653 301 34 28
62 55 62 60 0 6 -464 544 -531 615 -5 6 -32 -7 -66 -31 -150 -105 -317 -150
-458 -124 -98 18 -213 81 -281 154 -72 76 -107 140 -136 244 -22 78 -23 82
-26 1095 l-3 1018 478 2 478 3 157 420 c86 231 157 423 158 428 0 4 -286 7
-635 7 l-635 0 0 590 0 590 -440 0 -440 0 0 -1987z"/>
<path d="M1385 4289 c-323 -25 -619 -155 -828 -362 -170 -169 -273 -372 -313
-617 -23 -139 -14 -362 20 -493 84 -326 313 -592 678 -790 46 -25 223 -105
393 -177 459 -196 533 -237 637 -349 73 -79 101 -149 101 -251 0 -103 -29
-173 -100 -251 -165 -178 -517 -225 -788 -105 -138 61 -335 218 -461 368 l-40
46 -329 -239 c-182 -132 -336 -244 -344 -248 -11 -7 0 -28 54 -97 380 -490
992 -764 1592 -715 380 32 697 162 927 381 244 232 366 523 366 875 0 332
-106 576 -353 811 -179 172 -327 258 -812 474 -365 162 -467 217 -558 300
-217 198 -143 512 141 601 87 27 239 29 332 4 128 -33 250 -106 372 -223 l57
-54 258 188 c142 103 286 207 321 232 34 25 62 50 62 55 0 5 -29 46 -64 91
-204 262 -519 448 -881 521 -64 13 -315 38 -335 33 -3 0 -50 -4 -105 -9z"/>
<path d="M2972 4206 c2 -7 347 -936 768 -2064 l765 -2052 471 0 c368 0 473 3
477 13 2 6 344 923 760 2037 416 1114 760 2037 766 2053 l11 27 -471 -2 -470
-3 -533 -1427 c-293 -785 -534 -1430 -537 -1432 -3 -3 -245 640 -539 1429
l-535 1435 -468 0 c-391 0 -468 -2 -465 -14z"/>
<path d="M10635 4208 c-3 -7 -74 -197 -158 -423 l-153 -410 410 -5 411 -5 3
-1637 2 -1638 425 0 425 0 0 2065 0 2065 -680 0 c-535 0 -682 -3 -685 -12z"/>
</g>
</svg>
