<?xml version="1.0" standalone="no"?>
<!DOCTYPE svg PUBLIC "-//W3C//DTD SVG 20010904//EN"
 "http://www.w3.org/TR/2001/REC-SVG-20010904/DTD/svg10.dtd">
<svg version="1.0" xmlns="http://www.w3.org/2000/svg"
 width="1200.000000pt" height="488.000000pt" viewBox="0 0 1200.000000 488.000000"
 preserveAspectRatio="xMidYMid meet">

<g transform="translate(0.000000,488.000000) scale(0.100000,-0.100000)"
fill="#000000" stroke="none">
<path d="M6633 3013 c4 -2028 0 -1905 56 -2103 91 -323 336 -617 641 -770 197
-98 352 -135 575 -134 209 0 379 38 562 125 86 41 236 138 291 189 l33 30
-246 280 c-136 154 -248 280 -249 280 -2 0 -33 -20 -69 -44 -138 -92 -301
-127 -432 -92 -128 34 -247 131 -304 248 -64 129 -64 137 -65 1123 l-1 890
434 5 433 5 142 380 142 380 -576 5 -575 5 -3 533 -2 532 -395 0 -396 0 4
-1867z"/>
<path d="M1220 3875 c-8 -2 -49 -9 -90 -15 -416 -67 -757 -346 -873 -715 -40
-127 -50 -218 -44 -382 4 -119 10 -166 31 -238 85 -292 286 -521 610 -696 39
-21 202 -94 361 -162 337 -144 398 -174 481 -233 155 -110 212 -248 165 -402
-52 -172 -247 -285 -496 -285 -117 0 -195 17 -310 71 -128 60 -306 203 -408
330 l-27 34 -287 -208 c-159 -114 -298 -216 -311 -225 l-22 -17 59 -79 c78
-103 243 -261 361 -345 109 -78 319 -185 435 -222 305 -98 617 -110 907 -37
264 66 447 169 614 343 131 137 212 281 261 463 24 90 27 117 27 280 1 187 -6
230 -55 363 -49 135 -130 252 -258 374 -170 163 -294 235 -751 437 -322 143
-401 186 -484 262 -105 96 -141 195 -112 308 49 192 247 293 494 251 122 -20
281 -111 386 -219 l39 -40 46 33 c25 18 156 113 291 210 135 98 246 179 248
181 9 8 -88 126 -164 202 -177 174 -412 297 -679 355 -82 18 -399 34 -445 23z"/>
<path d="M10500 3855 c-462 -73 -804 -366 -955 -817 -32 -96 -75 -305 -75
-364 l0 -24 385 0 385 0 0 38 c0 146 129 337 273 406 187 88 404 48 556 -104
66 -67 105 -133 127 -221 31 -119 3 -234 -90 -378 -25 -39 -423 -570 -884
-1179 -461 -609 -841 -1113 -846 -1120 -6 -9 259 -12 1308 -12 l1316 0 0 375
0 375 -570 0 c-313 0 -570 2 -570 5 0 2 187 246 416 542 463 598 476 616 540
742 112 223 159 460 135 684 -43 397 -272 732 -630 920 -236 125 -549 175
-821 132z"/>
<path d="M2690 3803 c0 -5 311 -844 692 -1865 l693 -1858 427 0 426 0 26 68
c14 37 324 868 690 1847 365 979 667 1788 671 1798 7 16 -17 17 -418 17 l-425
0 -270 -722 c-148 -398 -366 -980 -483 -1295 -117 -315 -216 -570 -219 -567
-2 3 -221 585 -485 1292 l-481 1287 -422 3 c-232 1 -422 -1 -422 -5z"/>
</g>
</svg>
