<?xml version="1.0" standalone="no"?>
<!DOCTYPE svg PUBLIC "-//W3C//DTD SVG 20010904//EN"
 "http://www.w3.org/TR/2001/REC-SVG-20010904/DTD/svg10.dtd">
<svg version="1.0" xmlns="http://www.w3.org/2000/svg"
 width="356.000000pt" height="119.000000pt" viewBox="0 0 356.000000 119.000000"
 preserveAspectRatio="xMidYMid meet">

<g transform="translate(0.000000,119.000000) scale(0.100000,-0.100000)"
fill="#000000" stroke="none">
<path d="M1600 703 l5 -478 30 -54 c33 -59 78 -101 144 -133 88 -43 260 -20
317 43 16 17 14 21 -24 66 -69 83 -76 87 -106 68 -30 -20 -84 -22 -115 -5 -12
6 -31 26 -41 43 -18 29 -20 52 -20 260 l0 227 103 0 103 0 32 89 c18 48 32 91
32 95 0 3 -61 6 -135 6 l-135 0 0 125 0 125 -97 0 -98 0 5 -477z"/>
<path d="M247 932 c-137 -35 -217 -162 -187 -298 23 -102 79 -155 238 -223 56
-23 113 -54 127 -68 61 -62 6 -153 -94 -153 -37 0 -126 46 -153 79 l-23 28
-72 -50 c-40 -28 -73 -56 -73 -62 0 -24 102 -107 167 -137 59 -28 77 -32 157
-32 137 1 227 47 281 146 24 43 28 64 28 124 0 59 -4 79 -25 115 -39 67 -68
88 -211 159 -146 72 -175 99 -160 146 6 19 23 36 47 48 32 16 44 17 77 7 21
-6 51 -22 67 -36 l29 -24 69 50 c38 28 71 52 73 54 1 2 -18 24 -43 49 -79 76
-205 107 -319 78z"/>
<path d="M2461 923 c-87 -31 -181 -160 -181 -248 0 -25 1 -25 88 -25 l88 0 19
43 c24 51 78 82 125 72 37 -8 86 -55 92 -90 8 -42 -23 -92 -240 -378 l-203
-267 321 0 320 0 0 90 0 90 -135 0 c-74 0 -135 3 -135 8 0 4 46 66 102 137
126 163 148 206 148 301 0 42 -6 87 -16 109 -25 60 -99 132 -160 155 -66 24
-169 26 -233 3z"/>
<path d="M650 926 c0 -4 76 -210 257 -693 l76 -203 102 0 103 0 166 445 c91
245 166 448 166 451 0 2 -46 3 -102 2 l-103 -3 -114 -309 c-64 -169 -117 -304
-118 -300 -2 5 -54 144 -116 309 l-113 300 -102 3 c-56 1 -102 1 -102 -2z"/>
<path d="M3180 908 c-6 -13 -66 -173 -134 -355 l-123 -333 223 0 224 0 0 -95
0 -96 93 3 92 3 3 268 2 267 -95 0 -95 0 0 -90 0 -90 -91 0 c-83 0 -91 2 -84
18 4 9 46 123 95 252 49 129 92 243 95 253 7 15 -2 17 -94 17 -96 0 -102 -1
-111 -22z"/>
</g>
</svg>
