<?xml version="1.0" standalone="no"?>
<!DOCTYPE svg PUBLIC "-//W3C//DTD SVG 20010904//EN"
 "http://www.w3.org/TR/2001/REC-SVG-20010904/DTD/svg10.dtd">
<svg version="1.0" xmlns="http://www.w3.org/2000/svg"
 width="365.000000pt" height="365.000000pt" viewBox="0 0 365.000000 365.000000"
 preserveAspectRatio="xMidYMid meet">

<g transform="translate(0.000000,365.000000) scale(0.100000,-0.100000)"
fill="#ff0000" stroke="none">
<path d="M1700 3634 c-240 -27 -385 -61 -552 -129 -455 -186 -817 -547 -1002
-1001 -92 -225 -129 -421 -129 -679 0 -258 37 -454 129 -679 185 -453 547
-815 1000 -1000 225 -92 421 -129 679 -129 258 0 454 37 679 129 927 378 1376
1436 1000 2358 -240 589 -768 1009 -1399 1111 -90 15 -340 27 -405 19z m681
-214 c19 -10 19 -33 19 -1070 l0 -1060 135 0 c123 0 135 -2 145 -19 6 -12 10
-100 10 -217 0 -170 -2 -200 -17 -216 -14 -16 -33 -18 -145 -18 l-128 0 0
-148 c0 -102 -4 -152 -12 -160 -17 -17 -449 -17 -466 0 -8 8 -12 58 -12 160
l0 148 -633 0 c-617 0 -634 1 -652 20 -17 19 -17 21 6 58 57 93 1693 2508
1707 2520 19 15 19 15 43 2z"/>
<path d="M1667 1632 l-228 -337 227 -3 c125 -1 229 -1 231 1 2 2 2 155 1 340
l-3 336 -228 -337z"/>
</g>
</svg>
